<?xml version="1.0" encoding="UTF-8"?>
<svg id="Layer_1" data-name="Layer 1" xmlns="http://www.w3.org/2000/svg" viewBox="0 0 1010.53 1195.3">
  <path d="m650.34,3.63c-77.74-18.87-215.94,34.34-311.02,195.13,46.13-63.02,104.28-100.8,158.86-118.5,17.54-6.12,81.34-26.07,131.82-.86t.04.02c1.98.84,3.94,1.73,5.78,2.85,2.74,1.68,5.47,3.55,8.15,5.6,18.25,13.23,33.68,33.98,42.88,65.67.04.13.07.24.11.37,9.7,31.84,12.15,72.68,1.87,122.26-26.31,126.87-111.93,184.14-162.01,178.97-35.42-3.66-75.15-40.87-86.1-107.17l115.53-69.14h-122.28c-1.04-61.22,7.11-116.89,7.15-117.38v-.65c-28.7,32.68-56.26,80.07-75.86,118.03h-117.38l90.24,67.61c-31.44,110.82-3.92,215.85,40.62,261.85-62.03-24.65-119.89-98.88-114.67-207-25.92,160.56,45.4,262.72,120.04,280.82,90.78,22.04,266.66-60.8,354.79-285.43,89.63-228.46,2.2-371.03-88.58-393.07Zm54.3,364.26c-53.52,150.78-159.56,217.13-230.66,204.63-45.94-8.06-111.28-59.41-85.23-176.95,6.57,75.78,47.96,121.52,89.03,129.41,60.72,11.66,174.38-48.98,225.65-200.77,17.63-52.21,21.78-87,21.78-134.45,0,0,0,.02.02.04.41.69,18.94,66.74-20.58,178.1Z" fill="#000038" stroke-width="0"/>
  <path d="m484.7,771.81h-37.55l-.02,9.08h4.94c2.95,0,3.65,1.27,2.88,2.83,0,0-4.25,8.14-11.25,21.96-4.4,8.69-9.04,17.89-11.63,23l-22.33-44.96c-.87-1.91.41-2.85,2.61-2.85h4.89v-9.07s-49.09,0-49.09,0l-.02,9.07h2.9c3.54,0,5.92,1.04,9.09,6.74l46.22,86.47,47.71-88.05c2.01-3.45,4.54-5.13,7.77-5.13h2.85v-9.1Z" fill="#000038" stroke-width="0"/>
  <path d="m184.53,739.61h2.32c2.74.04,4.51,1.03,4.59,1.75v118.39c-.08.73-1.9,1.76-4.74,1.76h-2.19l.02,9.15h41.78v-9.17h-2.22c-2.78-.01-4.56-1.02-4.66-1.73v-118.41c.1-.71,1.85-1.7,4.58-1.74h2.29v-9.1h-41.78v9.1Z" fill="#000038" stroke-width="0"/>
  <path d="m356.33,859.79l.02-59.92c0-20.16-19.69-30.74-39.13-30.74-13.07,0-24.14,5.83-30.29,9.9v-4.98c0-3.55-2.26-6.23-5.28-6.23-.6,0-1.2.12-1.79.35l-.34.14c-1.58.55-7.02,2.6-27.95,10.57l-1.17.46-.02,9.22,1.94-.17s.24-.02.58-.02c2.66,0,5.82.8,5.82,4.57v66.79c-.04.68-1.65,1.63-4.18,1.77h-2.73v9.18h41.85v-9.18h-2.76c-2.37-.13-3.91-.97-4.13-1.62v-63.53c4.48-3.86,12.36-7.66,20.24-7.66,14.71,0,21.28,5.59,21.28,18.09v52.95c-.02.66-1.63,1.63-4.19,1.77h-2.74v9.18h41.88v-9.18h-2.75c-2.45-.13-4.01-1.01-4.14-1.69Z" fill="#000038" stroke-width="0"/>
  <path d="m848.45,769.13c-37.16,0-57.64,25.77-58.02,50.01,0,29.86,23.59,51.52,56.11,51.52,28,0,40.38-10.95,47.03-16.83l1.75-1.77s.01-16.06.04-16.54l-4.48,3.19c-9.09,6.29-19.39,13.44-37.31,13.44-24.42,0-33.43-20.35-33.53-34.01v-1.14h77.02v-4.13c0-30.05-25.2-43.74-48.62-43.74Zm-26.33,32.52c2.16-6.99,7.97-17.36,23.48-17.36,4.5,0,19.08,1.27,21.27,17.36h-44.75Z" fill="#000038" stroke-width="0"/>
  <path d="m968.51,784.21c16.08,0,28.15,10.42,30.79,18.52l11.23-.02v-23.48l-.91-.54c-.17-.1-17.25-10.16-39.9-10.16-43.96,0-60.34,31.46-60.34,51.27,0,4.06.58,8.29,1.72,12.6v.03l.05.14.04.21c.12.67.41,1.55,1.11,3.56,1.9,5.37,4.7,10.37,8.32,14.84,4.03,5.05,8.98,9.2,14.72,12.33,6.81,3.75,14.49,6.01,22.87,6.7.2,0,8.09.46,8.09.46,15.55,0,33.61-7.8,44.17-18.63,0,0,.02-12.85.04-13.31v-3.23c-1.28.83-5.06,3.61-6.49,4.56-7.47,5.07-15.81,11.03-31.44,11.03-23.18,0-33.55-17-33.55-33.84,0-15.93,9.22-33.07,29.46-33.07Z" fill="#000038" stroke-width="0"/>
  <path d="m762.58,853.48c-15.49,0-17.47-8.29-17.47-15.52v-50.31h33.07v-16.22h-32.6v-17.61l-28.47-.04.02,17.72h-13.13l-.02,16.14h13.17v50.51c0,23.24,19.01,31.52,36.8,31.52,15.8,0,27.07-11.27,27.54-11.76l.56-.56v-11.63l-2.77,1.67c-2.85,1.68-11.4,6.07-16.68,6.07Z" fill="#000038" stroke-width="0"/>
  <path d="m541.53,769.13c-37.16,0-57.64,25.77-58.03,50.01,0,29.86,23.6,51.52,56.11,51.52,28.01,0,40.39-10.95,47.04-16.83l1.75-1.77s.01-16.06.05-16.54l-4.49,3.19c-9.09,6.29-19.39,13.44-37.32,13.44-24.4,0-33.42-20.35-33.53-34.01v-1.14h77.04v-4.13c0-30.05-25.21-43.74-48.62-43.74Zm-26.34,32.52c2.16-6.99,7.97-17.36,23.48-17.36,4.5,0,19.07,1.27,21.28,17.36h-44.76Z" fill="#000038" stroke-width="0"/>
  <path d="m655.25,807.44c-11.74-4.15-21.88-7.74-21.88-15.38,0-5.8,7.35-8.83,14.61-8.83,22.49,0,22.54,7.69,23.77,13.49l10.27.02-.39-20.97-1.03-.49c-.14-.07-13.92-6.57-29.99-6.57-29.96,0-40.84,17.48-40.84,29.21,0,19.9,16.78,26.27,31.57,31.85,10.91,4.11,20.34,7.67,20.34,15.43,0,4.74-4.03,9.8-15.37,9.8-21.51,0-24.86-9.79-26.65-15.02-.25-.7-.46-1.31-.67-1.81l-.47-1.1h-1.15c-.18,0-.27,0-6.35,1.13l-1.58.3,1.46,22.95.92.5c.14.06,14.51,7.61,31.91,7.61,30.82,0,44.86-15.97,44.86-30.8,0-19.51-17.71-25.76-33.34-31.29Z" fill="#000038" stroke-width="0"/>
  <path d="m111.38,786.54h21.55l-.14-.5c-5.53-20.34-23.33-36.42-45.33-40.93l-.32-.07v16.26c11.33,4.05,20.33,13.41,24.25,25.23" fill="#000038" stroke-width="0"/>
  <path d="m66.15,839.48c-15.85-2.71-28.46-15.85-31.1-32.44h31.1v32.44Zm12.21-108.98h-12.21v16.13c-24.19,2.39-44.36,18.6-50.32,40.57l-.13.48h20.82c4.49-13.61,16-23.72,29.63-26.07v32.5H0v12.94h14.52c3.2,25.08,24.72,44.89,51.63,47.5v16.1h12.21v-63.6h31.17c-2.25,14.28-11.98,26.29-25.07,30.95v15.64l.31-.05c24.22-4.92,42.3-23.59,45.23-46.54h14.55v-12.94h-66.18v-63.61Z" fill="#000038" stroke-width="0"/>
  <path d="m142.15,957.11c15.75.02,41.62.02,57.88.02,0-2.09,0-21.68.03-30.22.02-5.66-.85-11.2-6-15.75h32.53c-4.5,5.66-4.99,11.84-4.99,18.4v82.64c0,6.07.97,12.12,5.39,17.47h-32.89c4.78-4.91,5.95-11.24,5.94-17.35-.02-12.58,0-26.36,0-38.88h-57.89c0,2.52.07,28.82-.06,40.32-.06,5.63.69,11.26,5.42,15.91-1.78,0-21.77-.04-31.37-.04,1.52-3.05,3.33-5.55,4.04-8.36.71-2.75.41-5.82.41-8.77.02-28.33,0-56.7.02-85.04,0-5.82.16-11.44-5.85-16.27l32.25.05c-4.89,5.14-4.99,10.8-4.92,16.82v29.06h.06Z" fill="#000038" stroke-width="0"/>
  <path d="m351.2,1013.35c-10.38-23.29-40.24-91.46-44.92-102.15h-24.12c3.25,3.13,3.41,5.98,1.86,9.35-1.66,3.57-25.15,59.42-35.97,83.42-3.84,8.6-6.18,18.74-14.58,25.71h28.32c-.36-4.2-.59-7.57.51-10.5,4.04-10.3,12.4-29.75,12.4-29.75h42.3s10.34,24.08,12.91,31.09c.91,2.46-.28,6.1-.67,9.15,9.86,0,30.82.04,31.02,0-2.93-5.31-6.58-10.81-9.07-16.32Zm-69.52-40.24c4.75-11.21,9.23-20.44,14.1-32.08,4.91,11.45,9.11,20.56,14.1,32.08h-28.2Z" fill="#000038" stroke-width="0"/>
  <path d="m477.11,911.25h26.59c-3.78,4.19-4.4,7.15-4.21,13.08.29,9.03,5.63,91.05,16.39,105.37h-28.26c3.71-6.51-1.07-46.73-2.9-60.19-1.04-7.53-2.31-15.02-3.64-23.42-13.17,28.54-25.9,54.17-39.43,83.46-7.54-15.03-33.84-69.59-40.63-84.13-.2.79-.76,4.83-.94,6.08-1.44,10.55-2.38,21.15-3.72,31.71-1.28,10.03-4.65,39.82-1.18,46.49-4.67,0-22.5,0-28.18,0,7.95-6.98,17.26-94.27,18.45-105.37.48-4.62.16-9.09-3.66-13.19h26.57c11.26,23.92,22.57,45.91,34.43,71.18l34.3-71.06h0Z" fill="#000038" stroke-width="0"/>
  <path d="m62.19,1013.86c-14.37-2.61-26.17-8.65-33.85-21.54-3.06-5.16-4.33-10.91-5.03-16.7-2.18-17.77,5.11-39.28,27.54-46.98,14.2-4.89,28.26-3.53,41.97,2.33,2.08.88,4.19,1.66,7.45,2.94-.89-8.16-1.64-15.18-2.57-23.58-10.48-.41-20.3-.91-30.14-1.19-11.09-.35-21.74,2.14-31.73,6.76-15.84,7.29-27.89,18.45-33.41,35.59-2.51,7.78-2.63,15.73-2.28,23.74.56,13.28,5.29,24.85,14.56,34.51,13.21,13.79,29.84,20.07,48.43,21.46,12.49.95,25.07.67,38.4-2.3,1.94-7.54,4.03-15.65,6.33-24.52-2.13.94-3.52,1.51-4.86,2.16-12.89,6.31-26.14,9.94-40.81,7.3Z" fill="#000038" stroke-width="0"/>
  <path d="m769.01,920.43c-19.17-12.87-40.09-14.34-61.95-8.16-17.78,4.99-29.95,16.52-37.55,33.15-4.2,9.23-4.79,18.97-4.71,28.88.16,15.29,6.02,28.08,16.56,38.58,12.36,12.32,28.2,19.05,48.09,19.05,11.49,0,20.87-2.14,30.22-6.3,8.16-3.6,15.41-9.03,21.15-15.84,1.43-1.7,2.85-3.53,4.08-5.47,17.47-25.75,14.3-63.65-15.88-83.89Zm3.49,53.59c-1.03,12.08-5.07,22.78-14.5,31.01-7.05,6.26-15.25,9.55-24.6,10.18-9.23.67-18.14-.79-26.1-5.66-14.26-8.6-20.4-25.23-19.92-41.39.2-7.33,1.43-14.54,4.95-21.11,7.72-14.62,20.24-21.55,36.48-21.55s29.51,6.26,37.95,20.84c4.95,8.56,6.54,17.98,5.74,27.69Z" fill="#000038" stroke-width="0"/>
  <path d="m886.56,925.54c-.13,6.69,0,52.36,0,52.36-20.74-22.97-39.27-43.96-59.83-66.73h-23.91c4.85,5.01,5.23,10.67,5.2,16.58-.08,28.87-.05,57.09.07,85.99,0,5.51-.62,11.65-5.27,16.04h32.43c-4.8-3.88-5.58-10.29-5.57-16.04.02-23.29,0-44.09,0-69.24,27.61,30.29,50.38,54.15,78.45,84.83v-7.72c0-30.47-.05-60.99.06-91.49,0-6.62.1-13.36,5.79-18.84l-32.73-.11c4.59,4.27,5.44,9.11,5.31,14.38Z" fill="#000038" stroke-width="0"/>
  <path d="m992.61,965.85c-7.18-2.95-14.46-5.55-21.64-8.48-6.18-2.54-12.45-4.98-18.34-8.08-5.42-2.82-7.52-8.52-5.81-13.56,1.62-4.78,5.36-7.44,9.81-8.77,6.75-2,13.6-2.33,20.65-.89,8.5,1.74,16.03,5.41,24.16,10.37-.7-6.43-3.13-22.65-3.8-25.72-6.25-.64-12.32-1.53-18.43-1.81-6.44-.31-12.94-.26-19.37.14-9.03.57-17.29,3.75-24.62,8.98-9.34,6.62-13.22,19.54-10.51,30.81,2.47,10.37,9.94,15.68,18.59,19.69,7.02,3.25,14.45,5.6,21.63,8.47,5.24,2.06,10.63,3.87,15.48,6.62,9.31,5.32,10.65,16.53,2.73,23.73-3.25,2.96-7.46,5.56-11.75,6.55-22.52,5.18-42.88-7.32-51.07-10.71,1.12,8.02,2.2,16.18,3.34,24.61,13.71,3.3,26.68,4.67,39.89,4.29,8.18-.21,15.97-1.81,23.4-4.99,9.67-4.14,17.42-10.23,21.34-20.63,5.79-15.38.18-34.13-15.69-40.62Z" fill="#000038" stroke-width="0"/>
  <path d="m597.25,916.23c-6.92-3.53-14.45-4.69-22.06-4.85-11.11-.28-33.28-.18-33.28-.18h-19.34c5.05,4.81,5.62,9.45,5.59,14.98-.11,29.17-.1,58.33,0,87.52.03,5.61-.88,11.39-5.44,15.94h31.73c-2.53-3.39-3.91-2.89-3.91-15.95,0-1.91-.32-85.33-.32-86.78l21.98.08s19.86-.22,23.41,20.23c1.53,8.82-3.27,18.85-11.53,23.66-8.22,4.75-16.32,5.97-25.21,3.91-3.14-.73-5.27-3.02-6.24-3.64,4.11,11.85,13.65,22.85,35.39,18.11,0,0,1.22-.31,1.83-.51,19.42-6.58,28.85-19.63,28.44-39.78-.33-15.22-7.68-25.89-21.05-32.74Z" fill="#000038" stroke-width="0"/>
  <path d="m562.58,1074.59c-4.99,3.82-5.23,8.73-5.27,14.04,0,11.14-.12,51.33-.12,62.67,0,19.51-6.52,44-51.93,44s-51.93-24.5-51.93-44c0-11.34-.12-51.53-.12-62.67-.04-5.31-.28-10.22-5.27-14.04h32.38c-4.75,3.7-5.35,8.61-5.31,13.92.04,20.15.16,40.67.16,60.86,0,16.53,10.22,26.19,30.09,25.94,19.87.24,30.09-9.41,30.09-25.94,0-20.19.12-40.71.16-60.86.04-5.31-.56-10.22-5.31-13.92h32.38Z" fill="#000038" stroke-width="0"/>
  <rect x="701.67" y="1128.9" width="149.3" height="9.6" fill="#000038" stroke-width="0"/>
  <rect x="152.16" y="1128.9" width="149.3" height="9.6" fill="#000038" stroke-width="0"/>
  <path d="m648.75,1079.82c-6.92-3.53-14.45-4.69-22.06-4.85-11.11-.28-33.28-.18-33.28-.18h-19.34c5.05,4.81,5.62,9.45,5.59,14.98-.11,29.17-.1,58.33,0,87.52.03,5.61-.88,11.39-5.44,15.94h31.73c-1.33-3.32-3.78-6.87-3.87-10.02-.06-1.91-.17-5.66-.17-5.66,0,0-.19-85.59-.19-87.05l21.98.08s19.86-.22,23.41,20.23c1.53,8.82-3.27,18.85-11.53,23.66-8.22,4.75-16.32,5.97-25.21,3.91-3.14-.73-5.27-3.02-6.24-3.64,4.11,11.85,13.65,22.85,35.39,18.11,0,0,1.22-.31,1.83-.51,19.42-6.58,28.85-19.63,28.44-39.78-.33-15.22-7.68-25.89-21.05-32.74Z" fill="#000038" stroke-width="0"/>
  <path d="m395.5,1177.44c-14.37-2.61-26.17-8.65-33.85-21.54-3.06-5.16-4.33-10.91-5.03-16.7-2.18-17.77,5.11-39.28,27.54-46.98,14.2-4.89,28.26-3.53,41.97,2.33,2.08.88,4.19,1.66,7.45,2.94-.89-8.16-1.64-15.18-2.57-23.58-10.48-.41-20.3-.91-30.14-1.19-11.09-.35-21.74,2.14-31.73,6.76-15.84,7.29-27.89,18.45-33.41,35.59-2.51,7.78-2.63,15.73-2.28,23.74.56,13.28,5.29,24.85,14.56,34.51,13.21,13.79,29.84,20.07,48.43,21.46,12.49.95,25.07.67,38.4-2.3,1.94-7.54,4.03-15.65,6.33-24.52-2.13.94-3.52,1.51-4.86,2.16-12.89,6.31-26.14,9.94-40.81,7.3Z" fill="#000038" stroke-width="0"/>
  <path d="m652.31,1012.94c0,5.91.44,11.91,5.27,16.65h-32.38c4.83-4.75,5.27-10.74,5.27-16.65,0-28.84-.08-59.77,0-88.65.04-5.47-.36-8.37-5.27-13.11h32.38c-4.91,4.75-5.31,7.64-5.27,13.15.08,28.84,0,59.77,0,88.61Z" fill="#000038" stroke-width="0"/>
</svg>