<?xml version="1.0" encoding="utf-8"?>
<!-- Generator: Adobe Illustrator 24.3.0, SVG Export Plug-In . SVG Version: 6.00 Build 0)  -->
<svg version="1.1" id="Layer_1" xmlns="http://www.w3.org/2000/svg" xmlns:xlink="http://www.w3.org/1999/xlink" x="0px" y="0px"
	 viewBox="0 0 512 512" style="enable-background:new 0 0 512 512;" xml:space="preserve">
<style type="text/css">
	.st0{fill:#104C8E;}
	.st1{fill:#FFFFFF;}
</style>
<g id="XMLID_1_">
	<path id="XMLID_3_" class="st0" d="M182.79,359.58c0-10.52,6.45-20.21,16.84-27.92c-22.59-1.54-28.49-12.07-32.27-27.08
		c-4.63,6.17-12.49,10.8-25.4,10.8H83.44v-91.49c-117.31,0-96.82-116.05-25.82-116.05h21.19c-22.31,12.49-30.17,24.56-29.19,37.33
		c0.98,11.79,14.59,20.49,34.52,20.49h345.47c19.79,0,34.52-8.7,34.52-20.49c0-19.79-14.87-27.08-28.49-37.33h20.21
		c68.34,0,86.3,108.89-15.58,115.49c-6.6,0.56-14.31,0.56-20.21,0.56l-10.95,0.28c0,0-3.09-0.28-4.07-0.28
		c7.72,3.65,36.34,11.51,36.34,45.32c0,28.91-21.19,46.31-47.43,46.31c-6.88,0-9.68-0.7-14.31-1.54v15.3h-60.2
		c12.35,8,19.93,18.38,19.93,30.03c0,24.84-35.08,44.76-78.3,44.76C217.87,404.48,182.79,384.13,182.79,359.58"/>
	<path id="XMLID_4_" class="st1" d="M93.69,304.01v-23.85h38.73c6.45,0,10.52-3.79,10.52-10.95c0-8.14-4.07-11.23-11.23-11.23H93.83
		v-22.73h38.17c6.17,0,9.96-3.37,9.96-9.54c0-5.89-3.79-9.68-10.8-9.68c-4.91,0-34.52,0-34.52,0v0.28h-2.81
		c-22.73-0.56-55.57-3.09-74.23-27.64c-26.94-35.36,8.14-74.23,40.41-74.23c-7.44,5.61-17.96,11.51-17.96,31.01
		s22.73,28.2,42.52,28.2h345.47c19.79,0,42.52-8.7,42.52-28.2c0-19.5-10.8-25.54-17.96-31.01c32.27,0,62.16,38.17,37.61,75.07
		c-15.86,23.85-48.97,26.38-71.7,26.94h-3.09h-16.42c-8.98,0-14.87-0.7-14.87,6.45c0,4.91,5.05,6.17,12.49,9.54
		c8.7,4.07,33.54,11.51,33.54,36.62c0,27.64-25.4,34.8-37.89,34.8c-12.49,0-22.73-4.63-27.64-7.16v22.31h-51.92v-123.9h30.45v98.65
		h18.38v-31.43c0,0,19.5,20.49,30.73,14.03c7.44-4.35,5.89-14.31-4.35-19.5c-6.17-3.09-32.55-6.88-32.55-31.29
		c0-22.03,17.12-31.01,36.06-31.01h28.91c22.31,0,42.8-5.05,51.5-14.87c3.37-3.79,4.63-11.23,6.45-15.3
		c-13.33,18.66-46.59,20.21-53.46,20.21H78.67c-6.88,0-34.52-1.54-47.85-20.21c0.28,10.95,5.33,14.87,8.98,18.38
		c12.35,12.35,29.19,11.79,51.78,11.79h5.05h36.9c20.49,0,35.36,5.61,35.36,28.49c0,22.59-16.7,23.57-16.7,23.57
		c7.44,0,20.49,6.88,20.49,26.38c0,19.5-14.31,31.43-30.45,31.43H93.69V304.01z"/>
	<path id="XMLID_5_" class="st1" d="M234.29,359.16c0-6.45,12.07-11.79,26.66-11.79c14.87,0,26.66,5.05,26.66,11.79
		c0,6.45-12.07,11.79-26.66,11.79C246.36,370.8,234.29,365.47,234.29,359.16"/>
	<path id="XMLID_6_" class="st1" d="M256.88,194.7h30.45v98.65h21.47v25.54h-39.15c34.52,2.53,61.18,21.19,61.18,41.54
		c0,6.88-3.09,13.61-8.7,19.22c0.7-2.25,1.26-4.63,1.26-6.88c0-19.5-27.64-37.19-62.02-37.19s-62.16,17.68-62.16,37.19
		c0,2.25,0.56,4.63,1.26,6.88c-5.61-5.61-8.7-12.35-8.7-19.22c0-12.49,10.24-24.28,26.1-32.27c-1.82,0.28-3.37,0.28-5.05,0.28
		c-20.49,0-37.19-10.8-37.19-31.29V194.7h29.47v92.75c0,4.35,3.65,8,7.72,8c4.35,0,7.72-3.65,7.72-8V194.7h29.19v102.44
		c0,10.8-4.35,18.66-11.51,24.14c5.89-1.26,12.35-2.25,18.66-2.53V194.7z"/>
</g>
</svg>
