<?xml version="1.0" encoding="utf-8"?>
<!-- Generator: Adobe Illustrator 22.1.0, SVG Export Plug-In . SVG Version: 6.00 Build 0)  -->
<svg version="1.1" id="Layer_1" xmlns="http://www.w3.org/2000/svg" xmlns:xlink="http://www.w3.org/1999/xlink" x="0px" y="0px"
	 viewBox="0 0 1000 1000" enable-background="new 0 0 1000 1000" xml:space="preserve">
<polygon fill="#E84621" points="999.998,550 999.998,267.504 833.334,222.916 833.334,350.417 666.664,306.248 666.664,177.921 
	499.999,133.333 333.335,177.502 333.335,305.003 166.671,349.166 166.671,222.503 0.001,267.504 0.001,550 "/>
<path fill="#1A1449" d="M967.776,650.871h-36.425v-75.871h-32.222v174.721h32.222v-74.484h36.425v74.484h32.222V574.999h-32.222
	V650.871z M875.035,602.411c0-18.274-10.182-27.411-30.54-27.411h-32.783c-20.364,0-30.54,9.137-30.54,27.411v120.176
	c0,18.274,10.176,27.411,30.54,27.411h32.783c20.358,0,30.54-9.137,30.54-27.411l0.03-64.007l-44.724,11.734l-1.818,10.182h14.013
	v38.768c0,2.957-0.561,4.94-1.682,5.956c-1.122,1.015-3.181,1.523-6.162,1.523h-13.174c-2.987,0-5.041-0.508-6.162-1.523
	c-1.122-1.015-1.682-2.998-1.682-5.956v-113.53c0-2.951,0.561-4.935,1.682-5.95c1.121-1.015,3.176-1.523,6.162-1.523h13.174
	c2.981,0,5.041,0.508,6.162,1.523c1.122,1.015,1.682,2.998,1.682,5.95l1.393,31.289l31.071-8.14L875.035,602.411z M704.959,681.605
	l26.898,68.115h34.748l-29.424-68.948c13.635-2.579,20.458-11.445,20.458-26.579v-51.783c0-18.274-10.188-27.411-30.546-27.411
	h-65.005v174.721h32.222v-68.115H704.959z M717.567,599.365c2.987,0,5.047,0.514,6.168,1.523c1.122,1.015,1.682,3.004,1.682,5.956
	v43.75c0,2.951-0.561,4.94-1.682,5.95c-1.121,1.021-3.181,1.523-6.168,1.523h-23.256v-58.701H717.567z M603.252,717.876
	c0,2.957-0.561,4.94-1.682,5.956c-1.122,1.015-3.27,1.523-6.446,1.523h-14.845c-2.993,0-5.047-0.508-6.168-1.523
	c-1.121-1.015-1.682-2.998-1.682-5.956V574.999h-32.222v147.31c0,18.274,10.182,27.411,30.546,27.411h34.182
	c20.358,0,30.54-9.137,30.54-27.411v-147.31h-32.222V717.876z M481.37,648.238c-1.121,1.015-3.27,1.523-6.446,1.523h-25.493v-51.5
	h25.493c3.176,0,5.324,0.508,6.446,1.523c1.121,1.015,1.682,2.998,1.682,5.95v36.549C483.053,645.24,482.492,647.229,481.37,648.238
	 M481.37,724.942c-1.121,1.015-3.27,1.523-6.446,1.523h-25.493v-53.442h25.493c3.176,0,5.324,0.508,6.446,1.523
	c1.121,1.015,1.682,2.998,1.682,5.95v38.49C483.053,721.943,482.492,723.927,481.37,724.942 M417.21,749.721h67.242
	c20.358,0,30.546-9.137,30.546-27.411v-40.981c0-10.701-3.925-17.348-11.77-19.939c7.845-2.579,11.77-9.692,11.77-21.32v-37.658
	c0-18.274-10.188-27.411-30.546-27.411H417.21V749.721z M360.61,689.084l-37.269-114.084h-31.1v174.721h29.702V633.978
	l37.824,115.743h30.262V574.999H360.61V689.084z M231.439,749.721h32.222V574.999h-32.222V749.721z M106.193,749.721h67.248
	c20.358,0,30.54-9.137,30.54-27.411V602.411c0-18.274-10.182-27.411-30.54-27.411h-67.248V749.721z M169.799,724.942
	c-1.122,1.015-3.181,1.523-6.162,1.523h-25.221V598.261h25.221c2.981,0,5.041,0.508,6.162,1.523c1.121,1.015,1.682,2.998,1.682,5.95
	v113.252C171.481,721.943,170.92,723.927,169.799,724.942 M32.505,672.816h36.478l6.953-24.991H32.505v-48.46h51.553v-24.366H0
	v174.721h86.301v-24.366H32.505V672.816z"/>
<path fill="#1A1449" d="M738.013,816.973c0.366-0.336,1.074-0.508,2.125-0.508h2.68c0.986,0,1.665,0.171,2.036,0.508
	c0.366,0.342,0.555,1.003,0.555,1.989v4.899c0,3.884-1.08,7.461-3.24,10.725l-15.063,24.407v7.673h29.117v-8.14h-16.545
	l12.106-21.167c2.774-4.315,4.161-8.753,4.161-13.31v-6.564c0-6.103-3.388-9.155-10.17-9.155h-8.872
	c-6.717,0-10.076,3.052-10.076,9.155v10.164h10.631v-8.688C737.458,817.977,737.641,817.315,738.013,816.973 M656.014,808.332v8.6
	h17.932l-15.807,49.735h10.908l16.267-52.049v-6.286H656.014z M602.396,808.332h-10.725c-6.717,0-10.076,3.052-10.076,9.155v12.661
	c0,3.825,1.293,6.162,3.884,7.03c-2.591,0.862-3.884,3.081-3.884,6.652v13.682c0,6.103,3.359,9.155,10.076,9.155h10.725
	c6.717,0,10.076-3.052,10.076-9.155V843.83c0-3.571-1.293-5.79-3.884-6.652c2.591-0.868,3.884-3.205,3.884-7.03v-12.661
	C612.471,811.384,609.113,808.332,602.396,808.332 M601.658,858.114c-0.372,0.336-1.08,0.508-2.131,0.508h-4.988
	c-0.992,0-1.665-0.171-2.036-0.508c-0.372-0.336-0.555-1.004-0.555-1.989v-12.755c0-0.986,0.183-1.647,0.555-1.989
	c0.372-0.336,1.045-0.508,2.036-0.508h4.988c1.051,0,1.759,0.171,2.131,0.508c0.366,0.342,0.555,1.003,0.555,1.989v12.755
	C602.213,857.11,602.024,857.778,601.658,858.114 M601.658,833.063c-0.372,0.336-1.08,0.508-2.131,0.508h-4.988
	c-0.992,0-1.665-0.171-2.036-0.508c-0.372-0.342-0.555-1.003-0.555-1.989v-12.207c0-0.98,0.183-1.647,0.555-1.983
	c0.372-0.342,1.045-0.508,2.036-0.508h4.988c1.051,0,1.759,0.165,2.131,0.508c0.366,0.336,0.555,1.004,0.555,1.983v12.207
	C602.213,832.06,602.024,832.721,601.658,833.063 M516.514,808.332v8.134h7.213v50.201h10.63v-58.335H516.514z M472.787,829.534
	h-11.28v12.478h11.28V829.534z M388.015,808.332v8.134h10.17v50.201h10.63v-50.201h10.264v-8.134H388.015z M334.213,858.02
	c-0.372,0.342-1.051,0.508-2.03,0.508h-3.518c-1.045,0-1.753-0.165-2.125-0.508c-0.366-0.336-0.555-0.998-0.555-1.983v-6.564h-10.63
	v8.039c0,6.103,3.359,9.155,10.076,9.155h9.987c6.717,0,10.076-3.052,10.076-9.155V842.26c0-6.038-3.235-9.06-9.71-9.06h-7.301
	c-1.051,0-1.753-0.171-2.125-0.508c-0.372-0.336-0.555-1.003-0.555-1.989v-11.74c0-0.986,0.183-1.647,0.555-1.989
	c0.372-0.336,1.074-0.508,2.125-0.508h3.512c0.986,0,1.665,0.171,2.036,0.508c0.366,0.342,0.555,1.003,0.555,1.989v6.658h10.725
	v-8.134c0-6.103-3.329-9.155-9.987-9.155h-10.17c-6.652,0-9.981,3.052-9.981,9.155v14.326c0,6.162,3.17,9.243,9.521,9.243h7.49
	c0.98,0,1.659,0.171,2.03,0.508c0.372,0.342,0.555,1.003,0.555,1.989v12.484C334.768,857.022,334.585,857.683,334.213,858.02
	 M253.602,840.872h14.331v-8.228h-14.331v-16.179h17.011v-8.134h-27.736v58.335h28.474v-8.14h-17.749V840.872z"/>
<rect x="0.002" y="775" fill="#E84621" width="999.998" height="8.334"/>
<g>
</g>
<g>
</g>
<g>
</g>
<g>
</g>
<g>
</g>
<g>
</g>
<g>
</g>
<g>
</g>
<g>
</g>
<g>
</g>
<g>
</g>
<g>
</g>
<g>
</g>
<g>
</g>
<g>
</g>
</svg>
