<svg id="efb8f462-8982-46ff-be2d-91251de2bff4" data-name="Layer 1" xmlns="http://www.w3.org/2000/svg" width="787.42" height="1000" viewBox="0 0 787.42 1000"><title>GLAS2756</title><path d="M879.42,152.81A1051.52,1051.52,0,0,0,625.36,89.54c-21.65-21.84-49.68-41.46-86-56.56A27.92,27.92,0,0,0,526.5,22.75l-15.3-6s-6.32-2.48-11.2-2.48-11.2,2.48-11.2,2.48l-15.3,6A27.92,27.92,0,0,0,460.63,33c-36.31,15.1-64.34,34.72-86,56.56a1051.52,1051.52,0,0,0-254.06,63.27V515.07c0,63.58,20.54,122.95,52.05,176.64H125a3.69,3.69,0,0,0-3.64,4.3l32.06,190.75a3.7,3.7,0,0,0,3.64,3.09H356.3C433.57,949.68,500,983.92,500,983.92s66.43-34.24,143.7-94.07H853.26a3.71,3.71,0,0,0,3.67-3.28l22-190.74a3.69,3.69,0,0,0-3.67-4.12h-47.9c31.51-53.69,52-113.06,52-176.64Z" transform="translate(-106.29)"/><path d="M313.41,518.23c19.94-8.17,27.27-37.9,27.27-37.9-10.95,9.2-29.16,7.83-29.16,7.83a47.66,47.66,0,0,0,17.77-31.27c-.06-.11-.13-.2-.2-.31-13.61,12.83-33.89,26.45-63.2,34.71h0s9.16,8.55,25.24,13.44c-47.78,34.5-37.47,60.86-37.47,60.86,27.1-32.15,81.09,3.86,110.79-20.58,11.46-9.44,28.62-29.81,25-58.74C360.73,521.28,313.41,518.23,313.41,518.23Z" transform="translate(-106.29)" fill="#fff"/><path d="M686.58,518.23c-19.94-8.17-27.28-37.9-27.28-37.9,11,9.2,29.17,7.83,29.17,7.83a47.66,47.66,0,0,1-17.77-31.27c.06-.11.13-.2.2-.31,13.61,12.83,33.89,26.45,63.2,34.71h0s-9.16,8.55-25.24,13.44c47.77,34.5,37.47,60.86,37.47,60.86-27.1-32.15-81.09,3.86-110.79-20.58-11.47-9.44-28.63-29.81-25-58.74C639.26,521.28,686.58,518.23,686.58,518.23Z" transform="translate(-106.29)" fill="#fff"/><path d="M461.08,228.31c-.53-18.42-2.63-65.05-10.65-99.65A20.45,20.45,0,0,0,423.79,114a43.39,43.39,0,0,0-16.27,10.26c-38.1,38-52.51,84.45-57.13,122.65C390,236.05,431.75,230.81,461.08,228.31Z" transform="translate(-106.29)" fill="#fff"/><path d="M649.63,246.91c-4.62-38.2-19-84.63-57.13-122.65A43.43,43.43,0,0,0,576.24,114a20.46,20.46,0,0,0-26.65,14.66c-8,34.6-10.12,81.23-10.65,99.65C568.27,230.81,610.05,236.05,649.63,246.91Z" transform="translate(-106.29)" fill="#fff"/><path d="M474,395a1.94,1.94,0,0,0-3.33-1.57c-11.51,11.76-31.31,23.05-61.61,12.88-46.93-15.75-56.59-67.08-57.13-98.58-22.63,5.54-26.71,9.68-33.23,12.56,8.23,42.28,32.4,99,99.72,139.33a267.08,267.08,0,0,0,35.67-33.06,21.39,21.39,0,0,1,5.05-4.17,16,16,0,0,1,11.95-1.71,2,2,0,0,0,2.45-2A139.2,139.2,0,0,1,474,395Z" transform="translate(-106.29)" fill="#fff"/><path d="M526,395a1.94,1.94,0,0,1,3.33-1.57c11.51,11.76,31.31,23.05,61.62,12.88,46.92-15.75,56.58-67.08,57.12-98.58,22.63,5.54,26.71,9.68,33.23,12.56-8.23,42.28-32.4,99-99.72,139.33a267.08,267.08,0,0,1-35.67-33.06,21.39,21.39,0,0,0-5-4.17,16,16,0,0,0-12-1.71,2,2,0,0,1-2.45-2A139.2,139.2,0,0,0,526,395Z" transform="translate(-106.29)" fill="#fff"/><path d="M455.94,318.09c2.28,1.81,4.58,3.58,6.95,5.23l-2-80.12c-38.3,3.38-97.21,11.44-143.07,30.47v32.81c.5-.26,1-.49,1.49-.73,2.47-1.19,7.87-3.66,15.17-6.41C391.2,279.38,438.7,306.14,455.94,318.09Z" transform="translate(-106.29)" fill="#fff"/><path d="M544.08,318.09c-2.28,1.81-4.58,3.58-7,5.23l2-80.12c38.3,3.38,97.21,11.44,143.07,30.47v32.81c-.5-.26-1-.49-1.49-.73-2.47-1.19-7.87-3.66-15.17-6.41C608.82,279.38,561.32,306.14,544.08,318.09Z" transform="translate(-106.29)" fill="#fff"/><path d="M532.68,436.39c-4.1,0-12.37,5.39-17.26,8.84-1.48,1-3.39-.3-3.14-2.23,1.4-10.74,2.06-40.26-1.24-56.48a204,204,0,0,0-6.49-25,4.69,4.69,0,0,0-4.51-3.11H500a4.69,4.69,0,0,0-4.51,3.11,204,204,0,0,0-6.49,25c-3.3,16.22-2.64,45.74-1.24,56.48.25,1.93-1.66,3.28-3.14,2.23-4.89-3.45-13.16-8.84-17.26-8.84-5.57,0-10.5,12.33-8.25,22.19a3.24,3.24,0,0,0,2.68,2.54c5.67.8,21.9,4.08,26.46,15.82a7.78,7.78,0,0,0,5,4.85,18.52,18.52,0,0,0,13.48,0,7.78,7.78,0,0,0,5-4.85c4.56-11.74,20.79-15,26.46-15.82a3.24,3.24,0,0,0,2.68-2.54C543.18,448.72,538.25,436.39,532.68,436.39Z" transform="translate(-106.29)" fill="#fff"/><path d="M459.42,370.93a67.15,67.15,0,0,0-10-8.82c-2.35,7.07-9.18,11.22-15.74,9.34-6.86-2-10.81-9.79-8.81-17.47.15-.57.34-1.12.54-1.66a53.28,53.28,0,0,0-13.8-.12,3.7,3.7,0,0,0-3.35,3.31v0c-.34,7.56,1.82,25.35,29.88,25.35a50.68,50.68,0,0,0,19.89-3.79A3.86,3.86,0,0,0,459.42,370.93Z" transform="translate(-106.29)" fill="#fff"/><path d="M591.73,355.55v0a3.7,3.7,0,0,0-3.35-3.33,53.28,53.28,0,0,0-13.8.12c.2.54.39,1.09.54,1.66,2,7.68-2,15.5-8.81,17.47-6.56,1.88-13.39-2.27-15.74-9.34a67.15,67.15,0,0,0-10,8.82,3.87,3.87,0,0,0,1.36,6.18,50.68,50.68,0,0,0,19.89,3.79C589.91,380.9,592.07,363.11,591.73,355.55Z" transform="translate(-106.29)" fill="#fff"/><path d="M383.5,307.76s51.55,1.85,87.7,44.85a6.25,6.25,0,0,1,1.44,3.91v.08a4.72,4.72,0,0,1-7.82,3.63,123.35,123.35,0,0,0-67.76-30S383.84,327.55,383.5,307.76Z" transform="translate(-106.29)" fill="#fff"/><path d="M616.52,307.76s-51.55,1.85-87.7,44.85a6.31,6.31,0,0,0-1.44,3.91v.08a4.72,4.72,0,0,0,7.82,3.63,123.35,123.35,0,0,1,67.77-30S616.18,327.55,616.52,307.76Z" transform="translate(-106.29)" fill="#fff"/><path d="M557.47,889.81C534.09,905.68,514,918,500,926.22c-14-8.23-34-20.55-57.38-36.41H402.19A1077.79,1077.79,0,0,0,500,953,1074.84,1074.84,0,0,0,598,889.81Z" transform="translate(-106.29)" fill="#6cace4"/><path d="M536.55,522.34a2.15,2.15,0,0,0,.74,4.17c3.51,0,15.33,0,18.9.17a1.74,1.74,0,0,1,.9,3.17,18.91,18.91,0,0,1-4.94,2.54c-13.82,4.69-51.4.25-79.58,3.67a45.12,45.12,0,0,1-17.77-1.35c-4.67-1.36-9.44-3.66-12.3-7.54a1.76,1.76,0,0,1,1.23-2.8c5.73-.58,20.5-.74,26.63-.71a2.15,2.15,0,0,0,.74-4.17c-8.83-3.19-22.15-6.8-25.08-9.6a4.63,4.63,0,0,1-.25-6.47c13.7-14.6,42.87,15.55,83,9,13.43-2.2,22.19-1.68,27.49.25a2.19,2.19,0,0,1,.49,3.89C553.83,518.44,541.75,520.46,536.55,522.34Z" transform="translate(-106.29)" fill="#fff"/><path d="M260.77,597.8c0-8.37,4.58-13.89,13.58-13.89H307l4,21.31h-25.1c-1.58,0-2.06.79-2.06,2.21v67.89c0,1.42.48,2.21,2.06,2.21H296.3v-55h22.26v75.87H278.61c-13.1,0-17.84-5.06-17.84-17.69Z" transform="translate(-106.29)" fill="#fff"/><path d="M327.38,583.91H350.9v93.14H374L370,698.37H327.38Z" transform="translate(-106.29)" fill="#fff"/><path d="M721.56,583.91h23.37l-18,114.46H706.09l-9.47-59.68-9.32,59.68H666.46l-18-114.46h23.36l7.26,66.62,9.32-66.62H705l9.15,66.62Z" transform="translate(-106.29)" fill="#fff"/><path d="M423.28,584.36H398.86L378.22,698.61h23l1.07-7.41,15.38-15.38,1.2,8.61,2.05,14.18h23Zm-8.57,69.15-8.33,8.32,4.77-36Z" transform="translate(-106.29)" fill="#fff"/><path d="M508.88,617.48V598.31a14.4,14.4,0,0,0-14.4-14.4H467.36c-13.09,0-17.82,5.05-17.82,17.67v29.65a1.27,1.27,0,0,1,0,.2c-.45,6.06,4.09,11.42,9.81,13.48l21.53,7.73a8.15,8.15,0,0,1,5.39,7.67v15.55c0,1.73-.47,2.36-2.36,2.36h-9.76a1.76,1.76,0,0,1-1.76-1.76v-4.15h0V664.8H449.54V684a14.4,14.4,0,0,0,14.4,14.4h27.11c13.09,0,17.82-5,17.82-17.67V651.05s0-.11,0-.16v-2.16a14.2,14.2,0,0,0-9.4-13.37l-21.93-7.88a8.14,8.14,0,0,1-5.4-7.66v-13.4c0-1.73.48-2.36,2.37-2.36h9.72a1.76,1.76,0,0,1,1.76,1.76v11.55h0v.11h22.86Z" transform="translate(-106.29)" fill="#fff"/><path d="M575.37,635.08V622.5H553.11v55H542.69c-1.57,0-2.05-.79-2.05-2.21V607.43c0-1.42.48-2.21,2.05-2.21H567.8l-3.95-21.31H531.17c-9,0-13.58,5.52-13.58,13.89v82.88c0,12.63,4.74,17.69,17.84,17.69h39.94V647.19l-6-6.05Z" transform="translate(-106.29)" fill="#fff"/><path d="M643.44,635.08V598.75c0-9-4.73-14.84-15.47-14.84H599.55c-10.73,0-15.47,5.84-15.47,14.84v36.33L578,641.14l6.05,6.05v34.92c0,8.68,3.63,16.26,16.42,16.26H627c12.79,0,16.42-7.58,16.42-16.26V647.19l6.06-6.05ZM620.23,676c0,1.73-.31,2.37-2.21,2.37h-8.68c-1.89,0-2.21-.64-2.21-2.37V606.17c0-1.42.47-2.21,2-2.21h9c1.58,0,2.05.79,2.05,2.21Z" transform="translate(-106.29)" fill="#fff"/><path d="M251.39,716.5h30.32L258.35,865h-27L219,787.59,206.93,865H179.88L156.53,716.5h30.32L196.27,803l12.09-86.46h21.51L241.76,803Z" transform="translate(-106.29)" fill="#fff"/><path d="M330.5,716.64H298.8L272,864.9h29.86l1.39-9.62,20-20,1.55,11.17,2.66,18.41h29.86Zm-11.13,89.73-10.8,10.8,6.18-46.75Z" transform="translate(-106.29)" fill="#fff"/><path d="M837.35,760.06V735.19a18.69,18.69,0,0,0-18.69-18.69H783.47c-17,0-23.13,6.55-23.13,22.92v38.48c0,.09,0,.17,0,.26-.59,7.87,5.29,14.82,12.72,17.49l27.94,10a10.57,10.57,0,0,1,7,9.95v20.19c0,2.24-.62,3-3.07,3H792.29a2.28,2.28,0,0,1-2.28-2.28v-5.38h0v-9.76H760.34v24.87A18.69,18.69,0,0,0,779,865h35.18c17,0,23.13-6.55,23.13-22.93V803.64c0-.07,0-.14,0-.22v-2.8a18.43,18.43,0,0,0-12.2-17.35l-28.46-10.22a10.57,10.57,0,0,1-7-9.95V745.71c0-2.24.62-3.06,3.06-3.06h12.63a2.29,2.29,0,0,1,2.28,2.28v15h0v.13h29.67Z" transform="translate(-106.29)" fill="#fff"/><path d="M429.22,817.71a12.85,12.85,0,0,0,13.32-13.11V735.76c0-11.68-6.15-19.26-20.08-19.26H357.72L363,742.66h3.13V865h29.71V817.71h3.89L414.06,865h30.73Zm-16-27c0,2.25-.61,3.07-2.87,3.07H395.83V742.52h14.54c2.05,0,2.87,1.23,2.87,3.07Z" transform="translate(-106.29)" fill="#fff"/><path d="M519.07,817.71a12.85,12.85,0,0,0,13.32-13.11V735.76c0-11.68-6.15-19.26-20.08-19.26H447.57l5.27,26.16H456V865h29.71V817.71h3.89L503.91,865h30.73Zm-16-27c0,2.25-.61,3.07-2.87,3.07H485.68V742.52h14.54c2,0,2.87,1.23,2.87,3.07Z" transform="translate(-106.29)" fill="#fff"/><polygon points="466.48 782.91 466.48 716.5 436.77 716.5 436.77 865.04 466.48 865.04 466.48 798.63 458.62 790.77 466.48 782.91" fill="#fff"/><path d="M737.65,817.71A12.85,12.85,0,0,0,751,804.6V735.76c0-11.68-6.15-19.26-20.08-19.26H674.55v66.41l7.85,7.86-7.85,7.86V865h29.7V817.71h3.9L722.49,865h30.73Zm-16-27c0,2.25-.62,3.07-2.87,3.07H704.25V742.52H718.8c2.05,0,2.87,1.23,2.87,3.07Z" transform="translate(-106.29)" fill="#fff"/><path d="M662.17,782.91V735.76c0-11.68-6.14-19.26-20.07-19.26H605.22c-13.93,0-20.08,7.58-20.08,19.26v47.15l-7.86,7.86,7.86,7.86v45.31c0,11.26,4.71,21.1,21.31,21.1h34.42c16.59,0,21.3-9.84,21.3-21.1V798.63l7.86-7.86Zm-30.11,53c0,2.25-.41,3.07-2.87,3.07H617.92c-2.46,0-2.87-.82-2.87-3.07V745.39c0-1.85.62-2.87,2.67-2.87h11.67c2.05,0,2.67,1,2.67,2.87Z" transform="translate(-106.29)" fill="#fff"/><path d="M853.88,499.44V169.49L847,167a1020,1020,0,0,0-201.7-50.27,231.58,231.58,0,0,1,15.6,23.65h0l.08.13a242.91,242.91,0,0,1,12,23.85l0,.07a269.4,269.4,0,0,1,17,54.73s0,.05,0,.07c1.48,7.43,2.62,14.63,3.48,21.54l0,.28c.86,6.92,1.44,13.53,1.81,19.77l4.31,1.52a3.74,3.74,0,0,1,2.5,3.6l-1,54.74a141.05,141.05,0,0,0,16.94,70c-13.13-4.11-29.11-11.9-29.11-11.9s14.89,27.34,52.78,53.37c-24.1,1.88-54.44-4.86-54.44-4.86C717.86,483.15,821.46,498,821.46,498s-15.14,15.91-54.58,21.76c11.22,11.51,29.63,37.92,29.32,87.23l-17.72-11.82c7,30,6.58,65.13-15.39,97.08,0,0,.58-.25,1.65-.75,21.33-9.91,37.56-30.63,48-53.82,3.35,10.18,4.69,16.28,4.69,16.28h0s20.92-52.95,10.72-123c0,0,13.84,11.08,22,26.36,4-24.58,3.74-41,3.74-41v-16.8ZM687,145a999.41,999.41,0,0,1,100.31,24.5l-72.6,72.61C711.52,214.1,703.91,179.47,687,145Zm71,263.76a114.3,114.3,0,0,1-33.16-59.2l108-108V451.81C809.06,443.42,780.66,429.91,758,408.72Z" transform="translate(-106.29)" fill="#6cace4"/><path d="M146.11,169.49v330h0v16.8s-.25,16.42,3.74,41c8.2-15.28,22-26.36,22-26.36-10.21,70.08,10.7,123,10.72,123h0s1.34-6.1,4.68-16.28c10.4,23.19,26.63,43.91,48,53.82,1.07.5,1.66.75,1.66.75-22-32-22.35-67.06-15.39-97.08l-17.72,11.82c-.32-49.31,18.1-75.72,29.31-87.23C193.67,513.86,178.53,498,178.53,498s103.6-14.8,134.23-70.62c0,0-30.34,6.74-54.44,4.86,37.89-26,52.77-53.37,52.77-53.37s-16.18,7.89-29.36,12a141,141,0,0,0,17.19-70.26l-1-54.61a3.74,3.74,0,0,1,2.49-3.6l4.31-1.52s0-.06,0-.08c.37-6.14.94-12.65,1.77-19.45,0-.26.07-.52.1-.79.26-2.07.54-4.18.86-6.31,0-.16,0-.31.07-.47q1-6.85,2.42-14l.24-1.2q.61-3,1.29-6.05c.09-.41.18-.82.28-1.24q1.63-7.17,3.74-14.54c.13-.46.27-.92.4-1.38.58-2,1.19-4,1.83-6,.18-.56.35-1.13.54-1.69q1.1-3.37,2.29-6.77l.2-.56c.89-2.5,1.83-5,2.82-7.5.17-.45.36-.91.55-1.36q1.2-3,2.49-6c.28-.66.57-1.32.86-2q1.32-3,2.73-6l.68-1.46q1.78-3.72,3.73-7.42c.18-.35.37-.69.56-1q1.65-3.12,3.42-6.23c.18-.31.34-.62.52-.93h0a231.58,231.58,0,0,1,15.6-23.65A1020,1020,0,0,0,153,167Zm92.5,242.28c-22.09,19.49-49,32.1-71.53,40V241.48l108,108A116.32,116.32,0,0,1,238.61,411.77Zm46.68-169.7-72.6-72.61A1000.31,1000.31,0,0,1,313,145C296.09,179.47,288.47,214.1,285.29,242.07Z" transform="translate(-106.29)" fill="#6cace4"/><path d="M500,338.4h-6.28a14.44,14.44,0,0,1-14.44-14.07l-7-274.85a11.87,11.87,0,0,1,7.55-11.37L495.47,32a12.48,12.48,0,0,1,9.08,0l15.69,6.14a11.87,11.87,0,0,1,7.55,11.37l-7,274.85a14.44,14.44,0,0,1-14.44,14.07h-6.28" transform="translate(-106.29)" fill="#fff"/><path d="M500,14.29c4.88,0,11.2,2.48,11.2,2.48l15.3,6A27.92,27.92,0,0,1,539.37,33c36.31,15.1,64.34,34.72,86,56.56a1051.52,1051.52,0,0,1,254.06,63.27V515.07c0,63.58-20.54,122.95-52,176.64h47.9a3.69,3.69,0,0,1,3.67,4.12l-22,190.74a3.71,3.71,0,0,1-3.67,3.28H643.7C566.43,949.68,500,983.92,500,983.92s-66.43-34.24-143.7-94.07H157a3.7,3.7,0,0,1-3.64-3.09L121.31,696a3.69,3.69,0,0,1,3.64-4.31h47.68c-31.51-53.69-52-113.06-52-176.64V152.81A1051.52,1051.52,0,0,1,374.64,89.54c21.65-21.84,49.68-41.46,86-56.56A27.92,27.92,0,0,1,473.5,22.75l15.3-6s6.32-2.48,11.2-2.48M500,0c-7.22,0-14.94,2.89-16.42,3.46l-15.28,6a42,42,0,0,0-16.66,11.83c-32.37,13.91-60.44,32.28-83.57,54.68a1066.4,1066.4,0,0,0-252.64,63.54L106.29,143V515.07c0,53.79,14.15,108.3,42.12,162.34H125a18,18,0,0,0-17.74,21l32.06,190.75a17.94,17.94,0,0,0,17.74,15H351.43c75.72,58.09,139.31,91.09,142,92.49L500,1000l6.55-3.37c2.71-1.4,66.3-34.4,142-92.49H853.26a18,18,0,0,0,17.87-15.93l22-190.75a18,18,0,0,0-17.87-20.05H851.59c28-54,42.12-108.55,42.12-162.34V143l-9.14-3.53A1066.4,1066.4,0,0,0,631.93,75.94c-23.13-22.4-51.2-40.77-83.57-54.68A42,42,0,0,0,531.7,9.43l-15.31-6C514.94,2.89,507.22,0,500,0Z" transform="translate(-106.29)" fill="#fff"/><path d="M418.44,459.65a267.08,267.08,0,0,0,35.67-33.06,21.19,21.19,0,0,1,5.05-4.17,16,16,0,0,1,11.95-1.71,2,2,0,0,0,2.45-2A140.25,140.25,0,0,1,474,395a1.93,1.93,0,0,0-3.32-1.57,54.74,54.74,0,0,1-26.76,15.45A156.36,156.36,0,0,1,418.48,427c-70.51-16.42-85.06-84.08-88.06-112.45-5.37,2.3-8.19,4.22-11.7,5.77C326.94,362.61,351.12,419.29,418.44,459.65Z" transform="translate(-106.29)" fill="#6cace4"/><path d="M581.58,459.65a267.08,267.08,0,0,1-35.67-33.06,21.39,21.39,0,0,0-5-4.17,16,16,0,0,0-12-1.71,2,2,0,0,1-2.46-2A138.19,138.19,0,0,0,526,395a1.94,1.94,0,0,1,3.33-1.57,54.74,54.74,0,0,0,26.76,15.45A156.36,156.36,0,0,0,581.54,427c70.51-16.42,85.06-84.08,88.06-112.45,5.36,2.3,8.19,4.22,11.7,5.77C673.07,362.61,648.9,419.29,581.58,459.65Z" transform="translate(-106.29)" fill="#6cace4"/><path d="M541.47,453.85c0-.16,0-.32,0-.48,0-8.52-4.17-17-8.79-17-4.1,0-12.38,5.39-17.26,8.84-1.49,1.05-3.39-.3-3.14-2.23,1.4-10.74,2.05-40.26-1.25-56.48a204,204,0,0,0-6.49-25,4.68,4.68,0,0,0-4.5-3.11h0V473.66a31.24,31.24,0,0,1-6.73-1.27,7.77,7.77,0,0,1-5-4.85c-4.56-11.73-20.78-15-26.45-15.81a3.25,3.25,0,0,1-2.69-2.54c0-.21-.07-.42-.11-.62a25.4,25.4,0,0,0,.11,10,3.25,3.25,0,0,0,2.69,2.54c5.67.8,21.89,4.08,26.45,15.82a7.79,7.79,0,0,0,5,4.85,18.49,18.49,0,0,0,13.47,0,7.79,7.79,0,0,0,5.05-4.85c4.56-11.74,20.78-15,26.45-15.82a3.26,3.26,0,0,0,2.69-2.54,21.1,21.1,0,0,0,.37-2.25c0-.21,0-.41.06-.61C541.43,455.08,541.46,454.47,541.47,453.85Z" transform="translate(-106.29)" fill="#6cace4"/><path d="M472.56,355.83v-.08a6.25,6.25,0,0,0-2.07-3.61c-31-26.45-66.46-30.18-83.57-30.23,4,7.06,10.15,8.3,10.15,8.3a123.45,123.45,0,0,1,67.77,30A4.6,4.6,0,0,0,466,361l.09,0a4.38,4.38,0,0,0,1.2.33l.12,0a4.39,4.39,0,0,0,1.2,0h.11a5.09,5.09,0,0,0,1.09-.33l.18-.08a4.45,4.45,0,0,0,.87-.56,2,2,0,0,0,.23-.18,4.11,4.11,0,0,0,.68-.76c.05-.08.11-.15.16-.22a4.52,4.52,0,0,0,.49-1.07l.05-.12a4.61,4.61,0,0,0,.17-1.36A3.86,3.86,0,0,0,472.56,355.83Z" transform="translate(-106.29)" fill="#6cace4"/><path d="M527.46,355.83v-.08a6.25,6.25,0,0,1,2.07-3.61c31-26.45,66.46-30.18,83.57-30.23-4,7.06-10.15,8.3-10.15,8.3a123.45,123.45,0,0,0-67.77,30A4.6,4.6,0,0,1,534,361l-.09,0a4.29,4.29,0,0,1-1.2.33l-.12,0a4.39,4.39,0,0,1-1.2,0h-.11a5.09,5.09,0,0,1-1.09-.33l-.18-.08a4.45,4.45,0,0,1-.87-.56,2,2,0,0,1-.23-.18,4.11,4.11,0,0,1-.68-.76c0-.08-.11-.15-.16-.22a4.52,4.52,0,0,1-.49-1.07l-.05-.12a4.61,4.61,0,0,1-.17-1.36A3.86,3.86,0,0,1,527.46,355.83Z" transform="translate(-106.29)" fill="#6cace4"/><path d="M425.21,124.27a43.55,43.55,0,0,1,14-9.41,20.22,20.22,0,0,0-15.48-.85,43.43,43.43,0,0,0-16.26,10.26c-38.11,38-52.51,84.45-57.13,122.65q9.11-2.49,18.3-4.59C373.88,205,388.61,160.78,425.21,124.27Z" transform="translate(-106.29)" fill="#6cace4"/><path d="M574.84,124.28a43.29,43.29,0,0,0-14.05-9.4,20.18,20.18,0,0,1,15.48-.86,43.47,43.47,0,0,1,16.27,10.26c38.1,38,52.51,84.45,57.12,122.66-6.06-1.67-12.18-3.19-18.3-4.6C626.16,205.05,611.43,160.79,574.84,124.28Z" transform="translate(-106.29)" fill="#6cace4"/><path d="M455.94,302.53c-17.24-11.95-64.74-38.71-121.42-18.75-7.3,2.75-12.7,5.22-15.17,6.4-.49.25-1,.48-1.49.74v15.56c.5-.26,1-.49,1.49-.73,2.47-1.19,7.87-3.66,15.17-6.41,56.68-20,104.18,6.8,121.42,18.75,2.28,1.81,4.58,3.58,6.95,5.23l-.39-15.84C460.27,305.91,458.1,304.24,455.94,302.53Z" transform="translate(-106.29)" fill="#6cace4"/><path d="M544.12,302.55c17.24-11.95,64.73-38.71,121.42-18.75,7.3,2.75,12.7,5.23,15.16,6.41.5.24,1,.47,1.5.73V306.5c-.5-.26-1-.49-1.5-.73-2.46-1.18-7.86-3.66-15.16-6.41-56.69-20-104.18,6.8-121.42,18.75-2.29,1.82-4.58,3.58-7,5.23l.39-15.84C539.79,305.93,542,304.27,544.12,302.55Z" transform="translate(-106.29)" fill="#6cace4"/><path d="M520.24,38.11,504.55,32a12.48,12.48,0,0,0-4.54-.85V338.4h6.34a14.44,14.44,0,0,0,14.44-14.07l7-274.85A11.87,11.87,0,0,0,520.24,38.11Z" transform="translate(-106.29)" fill="#6cace4"/><path d="M389.45,486.26a81.11,81.11,0,0,1-23.7,19.59,75.7,75.7,0,0,1-14.92,16.61c-22.33,18.38-58.39,2.58-86.43,7.28-16.34,21.43-10.74,35.84-10.74,35.84,27.1-32.15,81.09,3.86,110.79-20.58C375.91,535.56,393.07,515.19,389.45,486.26Z" transform="translate(-106.29)" fill="#6cace4"/><path d="M265.89,491.28h0l.05.05.12-.1-.17,0Z" transform="translate(-106.29)" fill="#6cace4"/><path d="M610.55,486.26a81.11,81.11,0,0,0,23.7,19.59,75.7,75.7,0,0,0,14.92,16.61c22.32,18.38,58.39,2.58,86.43,7.28,16.34,21.43,10.74,35.84,10.74,35.84-27.1-32.15-81.09,3.86-110.79-20.58C624.09,535.56,606.92,515.19,610.55,486.26Z" transform="translate(-106.29)" fill="#6cace4"/><path d="M734.11,491.28h0l-.05.05-.12-.1.17,0Z" transform="translate(-106.29)" fill="#6cace4"/><path d="M183,178.83l94.08,94.09.75,40.2L167.08,202.4V184.26Q175,181.47,183,178.83Z" transform="translate(-106.29)" fill="#fff"/><path d="M832.9,202.4,722.18,313.12l.75-40.2L817,178.83q8,2.65,15.88,5.43Z" transform="translate(-106.29)" fill="#fff"/></svg>