<?xml version="1.0" encoding="UTF-8"?>
<svg id="Calque_2" data-name="Calque 2" xmlns="http://www.w3.org/2000/svg" viewBox="0 0 923.64 1100.3">
  <defs>
    <style>
      .cls-1 {
        fill: #044437;
      }

      .cls-2 {
        fill: #fff;
      }

      .cls-3 {
        fill: #ac162c;
      }
    </style>
  </defs>
  <g id="Calque_1-2" data-name="Calque 1">
    <g>
      <path class="cls-2" d="M203.74,911.71c20.47,22.14,42.2,43.07,65.09,62.69,53.59,46,117.32,88.57,192.99,125.9l3.44-1.71c77.89-38.76,143.06-83.11,197.44-131.02,20.01-17.63,39.1-36.26,57.2-55.84,220.38-238.62,215.39-540.9,194.1-695.68-3.63-26.3-7.71-48.35-11.25-65.09-4.94-23.29-8.75-36.34-8.75-36.34-16.24-8.43-40.76-20.99-72.45-34.61C742.05,45.56,617.19,3.58,463.45,0h-1.66C311.97,3.21,189.45,42.96,109.41,76.9c-35.28,14.83-62.32,28.8-79.8,37.85,0,0-3.83,13.05-8.75,36.34-3.53,16.76-7.61,38.79-11.22,65.09-21.28,154.6-26.25,456.88,194.1,695.53h0Z"/>
      <path class="cls-3" d="M884.61,124.07c-60.16-31.77-123.4-57.32-188.74-76.26-3.77-1.09-7.6-2.16-11.47-3.21l7.42,7.42c.99.99,69.74,101.48-104.52,363.71,1.48,1.26,2.94,2.47,4.38,3.78,56.61,50.23,69.74,105.53,82.42,117.35,44.32,41.08,88.99,62.94,100.31,97.99,3.41,10.06-3.96,15.8-11.12,16.64-1,.1-2.01.1-3.02,0-.94-.07-1.87-.25-2.77-.54v5.04c0,10.78-2.3,28.87-16.44,37.08v1.06c0,.35,0,1.31.12,1.95s0,1.21,0,1.8c.05,2.21-.03,4.42-.22,6.62-2.65,15.82-21.38,30.18-45.95,25.49-8.36,12.58-31.77,32.38-65.68,35.82-.15-.4,8.97-19.31,8.97-19.31,0,0,3.09-6.95,11.4-28.16-.27,0-11.1,13.37-49.44,23.71,0,0,13.05-25.51,13.37-46.7-.37,0-4.94,2.47-29.66,10.06,6.99-10.41,11.77-22.13,14.04-34.46,23.9,24.52,37.7,35.25,81.4,53.1-96.9-39.06-88.7-133.32-157.25-125.08-74.16,9-92.31,185.4,43.06,262.63-25.86-17.09-46.88-40.55-61.03-68.13,15.4-2.1,27.49-12.01,28.11-11.89,2.84,2.84-.72,26.55-1.41,36.83,11.94-4.61,22.38-12.43,30.16-22.59.59,24.72.42,25.78,2.03,45.21,14.83-14.83,28.01-29.66,28.01-29.66h.64c3.91,37.28,3.29,36.29,2.47,51.17-.04,1.33-.19,2.65-.44,3.96,1.93.3,3.82.81,5.64,1.53,16.39,6.38,17.3,45.95-66.15,39.55-67.78-5.14-128.92-43.41-185.57-86.72l-5.36-4.13c-6.26,33.04-6.64,66.92-1.11,100.09,13.5,78.04,58.88,129.11,89.24,155.44,10.27,5.5,20.76,10.92,31.47,16.24C1078.81,783.95,884.61,124.07,884.61,124.07h0Z"/>
      <g>
        <path class="cls-1" d="M763.18,651.43c-1,.1-2.01.1-3.02,0-.97-.07-1.92-.26-2.84-.57-20.49-6.97-22.4-25.07-29.66-25.36-.52-.01-1.04.05-1.53.2-1.78.45-3.46,1.23-4.94,2.3h-.12c-.34.27-.65.56-.94.89l-.15.15c-.25.3-.48.62-.67.96v.2c-.17.33-.31.68-.42,1.04,0,.07,0,.13,0,.2-.1.37-.16.75-.2,1.14v.22c-.03.41-.03.82,0,1.24,0,.07,0,.15,0,.22,0,.44,0,.89.2,1.33v.22c0,.47.22.96.37,1.48v.2c.17.52.35,1.06.57,1.61v.15c.22.59.47,1.16.74,1.78,2.2,4.94,5.81,10.88,9.39,17.75l.22.42,1.09,2.13.4.79.96,1.95.49,1.04.84,1.85.54,1.19.77,1.8.57,1.33.67,1.76c.2.49.37.96.57,1.48s.44,1.33.67,2.03.59,1.88.87,2.82.35,1.19.52,1.8.27,1.16.42,1.76.27,1.14.4,1.73.22,1.21.35,1.8.22,1.16.32,1.78.17,1.21.25,1.8.17,1.24.22,1.88,0,1.21.15,1.8,0,1.31.12,1.95,0,1.21,0,1.8v1.58c.32-.12.64-.22.96-.37,20.64-10.31,21.56-36.39,20.94-47.61l-.07.35ZM519.15,412.36l.3-1.83c-197-76.93-290.73,146.44-167.41,319.36l.79-.72c-35.25-74.68-37.9-331.28,166.32-316.81Z"/>
        <path class="cls-1" d="M591.75,517.57l.57.69,10.93,13.32c1.63,6.2-6.7,8.03-6.7,8.03l-4.67-21.33c-23.24-.22-32.14,13.47-43.88,12.83,0,1.78,0,1.19-.27,3.53,24.03,4.6,33.1,38.07,55.5,38.07.09-.27.15-.55.17-.84,0,0-4.47-12.36-1.04-18.17,5.91-3.29,9.12-10.56,10.58-15.18,10.36,7.84,28.18,9.67,36.44,5.61.23-.22.45-.46.64-.72-20.37-16.04-60.86-134.7-188.12-90.33.32,1.16.15.57.44,1.63,73.05,2.18,105.7,36.98,129.41,62.84h0ZM463.82,798.46l.79-.84c-17.3-28.55-49.71-167.36,41.68-244.93-.69-1.04-.27-.44-1.04-1.51-131.61,37.8-81.85,221.74-41.43,247.28h0ZM719.9,708.78c-58.81-5.29-91.17-91.29-134.68-104.74,8.43,6.33,73.42,123.58,134.68,104.74Z"/>
        <path class="cls-1" d="M695.87,47.81c-76.13-22.07-154.81-34.17-234.05-36.02C250.66,16.34,94.92,95.07,39.1,124.07c0,0-194.2,659.88,422.72,964.24,0,0-145.63-85.58-114.28-267.67-30.38-23.24-59.48-47.88-87.61-69.71l-.77-.59-4.03-3.09-2.22-1.68-3.61-2.74-2.62-1.98-3.36-2.47-2.87-2.1-3.21-2.35-3.02-2.15-3.04-2.15-3.46-2.47-2.47-1.8-5.83-3.91-2.22-1.43-3.81-2.47-2.47-1.61-3.46-2.13-2.62-1.58-3.41-2-2.6-1.48-3.46-1.93-2.47-1.36-3.68-1.9-2.27-1.16-4.7-2.25-1.21-.57c-1.96-.89-3.91-1.71-5.86-2.47l-1.85-.74-4.03-1.61-2.25-.82-3.63-1.29-2.47-.77-3.51-1.09-2.47-.67-3.58-.91-2.25-.54-3.91-.79-1.93-.37c-1.93-.35-3.86-.64-5.78-.87,127.23-23.09,259.39,221.37,434.04,197.76-243.05-43.24-199.2-360.91-56.46-382.08-.03-.55-.03-1.1,0-1.66-125.83-29.66-213.43,133.14-93.54,315.68-.42.35-.96.89-.96.89,0,0-106.64-66.92-132.57-163.75l-.82-.17s-3.88,16.96-1.38,44.05c-.29.07-.6.07-.89,0,0,0-82.37-195.02,37.08-310.93,0,0-151.46,53.52-109.61,245.15-4.67-5.39-11.82-20.54-15.75-37.53,0,0-9.47,26.97-3.26,70.5-.82,0-.72,0-1.41.12-76.16-180.98,60.17-281.64,119.89-309.03,31.69,23.81,62.54,20.17,62.54,20.17-41.23-2.08-65.51-44.37-65.51-44.37-20.44-31.54-42.62-36.39-42.62-36.39-.27-.17-.55-.33-.84-.47l-.3-.17,24.72-1.98c67.19,0,99.87,28.35,115.02,49.44,58.17,4.4,104.62,23.71,141.37,45.02,2.69,1.56,5.29,3.14,7.86,4.72l2.32,1.48c1.83,1.16,3.61,2.32,5.39,3.49l2.35,1.56c2.27,1.56,4.5,3.11,6.67,4.67l2.2,1.63c1.46,1.09,2.92,2.18,4.33,3.26l2.97,2.32,3.29,2.65,2.99,2.47c1.71,1.43,3.36,2.89,4.94,4.33,166.44-250.96,115.34-360.57,104.32-371.67h0Z"/>
        <path class="cls-1" d="M730.85,701.88c-60.32-22.1-65.48-87.61-116.18-105.8-.05.25-.14.49-.27.72,11.59,7.22,57.72,110.85,116.46,105.09Z"/>
      </g>
      <path class="cls-2" d="M774.28,634.79c-11.22-35.05-55.99-56.86-100.31-97.99-15.57-14.49-31.69-94.23-127.78-149.95-36.78-21.31-83.21-40.62-141.37-45.02-15.15-21.04-47.83-49.44-115.02-49.44l-24.72,1.98.3.17c.29.14.57.3.84.47,0,0,22.25,4.94,42.62,36.39,0,0,24.25,42.27,65.51,44.37,0,0-30.83,3.66-62.54-20.17.17.37,0,0,0,0-59.8,27.39-196.13,128.03-119.82,309,.69,0,.59,0,1.41-.12-6.2-43.53,3.26-70.5,3.26-70.5,3.91,17.01,11.05,32.14,15.75,37.53-41.85-191.66,109.61-245.15,109.61-245.15-119.5,115.91-37.08,310.93-37.08,310.93.29.07.6.07.89,0-2.47-27.19,1.38-44.05,1.38-44.05l.82.17c26.01,96.75,132.6,163.65,132.6,163.65,0,0,.54-.54.96-.89-119.89-182.53-32.28-345.46,93.54-315.68-.03.55-.03,1.1,0,1.66-142.73,21.26-186.59,338.84,56.46,382.08-174.65,23.71-306.83-220.75-434.04-197.76,114.01,14.19,236.5,208.76,395.52,220.8,83.36,6.35,82.54-33.2,66.15-39.55-1.81-.72-3.71-1.24-5.64-1.53.25-1.3.4-2.63.44-3.96.87-14.83,1.48-13.89-2.47-51.17h-.64s-13.15,14.83-28.01,29.66c-1.58-19.43-1.43-20.54-2.03-45.21-7.78,10.16-18.22,17.98-30.16,22.59.69-10.28,4.23-33.99,1.41-36.83-.59,0-12.71,9.89-28.11,11.89,14.16,27.57,35.18,51.04,61.03,68.13-135.37-77.32-117.22-253.63-43.06-262.63,68.55-8.23,60.37,86.03,157.25,125.08-43.56-17.55-57.33-28.38-81.23-52.9-2.27,12.33-7.05,24.05-14.04,34.46,24.72-7.42,29.37-10.16,29.66-10.06-.3,21.19-13.37,46.7-13.37,46.7,38.39-10.33,49.22-23.71,49.44-23.71-8.31,21.21-11.4,28.16-11.4,28.16,0,0-9.12,18.91-8.97,19.31,33.92-3.44,57.33-23.21,65.68-35.82,24.57,4.7,43.31-9.67,45.95-25.49,4.08-43.41-40.07-71.69-15.03-78.63,8.63-2.47,9.34,17.72,31.2,25.17,8.01,2.69,21.56-3.14,17.16-16.12h0ZM464.61,797.65l-.79.84c-40.44-25.46-90.06-209.5,41.43-247.2.74,1.06.35.47,1.04,1.51-91.39,77.5-59.06,216.3-41.68,244.85h0ZM352.83,729.17l-.79.72c-123.33-173.04-29.66-396.29,167.41-319.36l-.3,1.83c-204.21-14.46-201.57,242.13-166.32,316.79v.02ZM547.72,534.55c.22-2.32.2-1.73.27-3.53,11.84.64,20.62-13.05,43.88-12.83l4.67,21.33s8.33-1.83,6.7-8.03l-10.93-13.32-.57-.69c-23.71-25.86-56.34-60.66-129.43-62.96-.3-1.09,0-.49-.44-1.63,127.26-44.37,167.75,74.28,188.12,90.33-.2.25-.41.49-.64.72-8.26,4.05-26.06,2.22-36.44-5.61-1.46,4.6-4.67,11.89-10.58,15.18-3.41,5.78,1.04,18.17,1.04,18.17-.02.29-.08.57-.17.84-22.37.2-31.42-33.37-55.45-37.97l-.02.02ZM585.2,604.06c43.53,13.45,75.87,99.47,134.68,104.74-61.23,18.81-126.22-98.44-134.65-104.76l-.02.02ZM730.85,701.91c-58.76,5.76-104.86-97.84-116.33-105.09.13-.22.22-.47.27-.72,50.55,18.17,55.74,83.68,116.06,105.78v.02ZM417.2,1021.86v-18.54l-6.48,1.98-.64-2.94,8.01-3.71h3.41v23.19h-4.3v.02ZM444.47,1022.35c-7,0-10.95-3.29-10.95-8.87.07-3.61,2.37-6.79,5.76-8.01-2.73-1.39-4.43-4.21-4.4-7.27,0-4.75,3.78-8.48,10.36-8.48s9.59,4.45,9.59,8.23c-.23,3.17-2.1,5.99-4.94,7.42,3.53.95,5.97,4.18,5.91,7.84.07,5.24-4.23,9.15-11.32,9.15h0ZM443.21,1007.15c-2.84.75-4.91,3.18-5.22,6.11,0,3.76,3.07,5.64,6.77,5.64s6.58-1.98,6.58-5.36c-.02-3.86-4-5.76-8.16-6.38h.02ZM446.12,1004.11c2.36-1.07,3.96-3.33,4.2-5.91-.32-3.07-3.07-5.3-6.13-4.98-2.52.26-4.54,2.18-4.94,4.68-.02,4.03,3.61,5.41,6.85,6.2h.02ZM474.06,1022.35c-6.97,0-10.95-3.29-10.95-8.87.07-3.61,2.37-6.79,5.76-8.01-2.74-1.38-4.45-4.2-4.42-7.27,0-4.75,3.78-8.48,10.36-8.48s9.59,4.45,9.59,8.23c-.22,3.17-2.1,5.99-4.94,7.42,3.54.94,5.97,4.18,5.91,7.84.12,5.24-4.18,9.15-11.3,9.15h0ZM472.8,1007.15c-2.84.75-4.91,3.18-5.22,6.11,0,3.76,3.04,5.64,6.77,5.64s6.58-1.98,6.58-5.36c0-3.86-3.96-5.76-8.11-6.38h-.02ZM475.69,1004.11c2.36-1.07,3.97-3.33,4.2-5.91-.26-3.07-2.97-5.35-6.04-5.09-2.6.22-4.7,2.21-5.06,4.79.05,4.03,3.58,5.41,6.92,6.2h-.02ZM493.36,1010.24c0-7.12,4.18-12.01,10.51-12.01s10.46,4.94,10.46,12.01-4.2,11.96-10.56,11.96-10.41-4.72-10.41-11.96h0ZM503.84,1001.76c-3.96,0-5.91,3.34-5.91,8.28s2.13,8.55,6.06,8.55,5.81-3.44,5.81-8.38-2.2-8.33-5.96-8.33v-.12ZM80.59,223.92l-14.68-41.01,11-3.96,12.16,34.01,18.79-6.72,2.47,7.05-29.74,10.63ZM124.14,208.74l-12.85-41.65,31.39-9.69-.79,7.98-17.18,5.29,2.99,9.74,17.3-5.34,2.2,7.05-17.3,5.34,3.29,10.63,20.05-6.18,2.2,7.05-31.3,9.79ZM171.73,194.47l-11.35-42.02,11.37-3.07,11.32,42.02-11.35,3.07ZM227.79,181.47c-18.05,4.03-30.41-3.16-33.1-15.15-2.69-11.99,6.95-24.72,25.86-29.02,4.85-1.2,9.87-1.53,14.83-.99l1.58,7.91c-4.78-1-9.72-.96-14.49.12-13.03,2.92-17.13,11.15-15.5,18.52,1.8,8.13,10.04,12.98,20.94,10.56,4.73-1.07,9.19-3.11,13.1-5.98l4.5,5.49c-5.18,4.16-11.24,7.09-17.72,8.55ZM261.88,173.78l-7.42-42.99,32.43-5.54-1.8,7.84-17.75,3.04,1.73,10.06,17.8-3.07,1.26,7.42-17.8,3.04,1.88,10.95,20.67-3.53,1.24,7.42-32.24,5.36ZM326.35,164.59c-6.2.86-12.52.21-18.42-1.88l3.73-7.05c4.23,1.64,8.79,2.24,13.3,1.76,4.1-.52,8.55-2.25,8.16-5.54-.69-5.71-14.46-4.94-22.03-10.16-2.53-1.61-4.19-4.27-4.52-7.24-.79-6.58,5.22-13.18,17.6-14.68,4.84-.7,9.77-.4,14.49.87l.79,7.76c-4.45-1.44-9.14-1.96-13.79-1.51-4.18.49-7.24,2.35-6.92,4.94.91,7.42,24.99,3.86,26.65,17.45.91,7.81-7.51,13.84-19.03,15.28ZM399.65,120.91l-15.18,1.09,2.62,36.07-11.84.89-2.62-36.17-16.54,1.21-.54-7.42,46.2-3.34-2.1,7.66ZM418.81,156.33l-1.04-43.56,32.83-.77-2.92,7.42-17.97.42.25,10.16,18.05-.42.2,7.42-18.07.42.27,11.1,20.96-.49.17,7.42-32.73.89ZM498.68,156.33c-8.31-11.54-11.59-16.51-13.65-17.18h-4.4l-.42,16.79-11.79-.3,1.16-43.56,16.46.42c15.13.4,20.47,6.3,20.32,13.05-.17,5.69-5.34,9.39-10.63,11.03,2.82,1.31,8.11,8.8,16.36,20.12l-13.42-.37ZM486.12,119.94l-4.94-.12-.32,12.63,4.94.12c4.94.12,8.78-2.67,8.87-6.43.1-3.36-2.97-6.06-8.55-6.2h0ZM598.15,127.9l-15.13-1.58-3.81,36.02-11.82-1.26,3.81-35.97-16.51-1.73.77-7.42,46.08,4.94-3.39,7ZM610.59,166.27l6.33-43.14,11.64,1.71-6.3,43.11-11.67-1.68ZM666.75,176.35c-17.65-3.39-26.35-15.05-24.03-27.04,2.47-12.36,16.86-19.78,35.89-16.17,5.65,1.05,11.13,2.86,16.29,5.39l-1.73,8.01c-4.42-2.89-9.35-4.89-14.54-5.91-14.83-2.84-21.78,2.94-23.21,10.48-1.58,8.23,4.08,16.49,15.65,18.71,2.75.58,5.58.76,8.38.54l2.77-14.34,11.57,2.25-3.53,18.29c-7.78,1.46-15.76,1.38-23.51-.22h0ZM707.37,184.31l10.56-42.3,31.86,7.96-4.8,6.43-17.43-4.35-2.47,9.89,17.5,4.4-1.8,7.24-17.5-4.4-2.69,10.8,20.34,5.07-1.8,7.19-31.77-7.94ZM784.34,205.45c-4.94-13.32-6.82-19.01-8.65-20.17l-4.2-1.26-4.94,16.07-11.3-3.41,12.76-41.75,15.8,4.77c14.49,4.4,18.1,11.49,16.14,17.95-1.66,5.44-7.61,7.64-13.15,7.84,2.35,2.03,5.49,10.63,10.43,23.73l-12.88-3.76ZM781.87,167.03l-4.77-1.43-3.68,12.09,4.77,1.46c4.77,1.46,9.15-.27,10.23-3.88,1.01-3.26-1.21-6.63-6.55-8.26v.02ZM824.98,219.79c-5.97-1.97-11.36-5.36-15.72-9.89l6.43-4.7c3.08,3.32,6.9,5.86,11.15,7.42,3.91,1.33,8.68,1.73,9.89-1.41,1.88-5.44-10.8-10.88-15.35-18.81-1.56-2.55-1.89-5.66-.89-8.48,2.18-6.25,10.48-9.52,22.25-5.46,4.64,1.51,8.93,3.95,12.61,7.17l-2.72,7.42c-3.35-3.25-7.34-5.78-11.72-7.42-3.98-1.38-7.54-1.06-8.36,1.31-2.47,7.12,20.74,14.44,16.29,27.39-2.65,7.56-12.93,9.27-23.85,5.46h0Z"/>
    </g>
  </g>
</svg>