<?xml version="1.0" encoding="utf-8"?>
<!-- Generator: Adobe Illustrator 26.5.0, SVG Export Plug-In . SVG Version: 6.00 Build 0)  -->
<svg version="1.1" id="Layer_1" xmlns="http://www.w3.org/2000/svg" xmlns:xlink="http://www.w3.org/1999/xlink" x="0px" y="0px"
	 viewBox="0 0 512 512" style="enable-background:new 0 0 512 512;" xml:space="preserve">
<style type="text/css">
	.st0{clip-path:url(#SVGID_00000098934502491015328300000015891800064827889794_);fill:#0E2E4F;}
	.st1{fill:#0E2E4F;}
	.st2{clip-path:url(#SVGID_00000085228396160772240350000002346840949080704669_);fill:#0E2E4F;}
</style>
<g id="XMLID_1_">
	<g id="XMLID_5_">
		<g>
			<defs>
				<rect id="SVGID_1_" x="0.18" y="66.03" width="511.72" height="379.93"/>
			</defs>
			<clipPath id="SVGID_00000156587024343903840020000013084972013580478893_">
				<use xlink:href="#SVGID_1_"  style="overflow:visible;"/>
			</clipPath>
			<path id="XMLID_9_" style="clip-path:url(#SVGID_00000156587024343903840020000013084972013580478893_);fill:#0E2E4F;" d="
				M279.73,223.47c-0.28,0-6.45-1.96-6.45-1.96s-34.21-78.65-105.43-112.02c-0.28-0.14,15.98,31.4,15.14,70.8
				c-0.98,46.41-19.35,54.4-19.35,54.4l20.61,0.42c0,0-37.57,14.44-68.56,41.5c-0.14,0.14-24.25,0.42-24.25,0.42l8.83,14.86
				l-21.31,24.53l-33.51-93.09c0,0-4.35,97.58-5.61,120.99c0,0.28-18.23,12.9-22.99,58.04c-1.96,19.35,1.68,43.6,1.68,43.6
				s34.63-83,64.07-111.32l-3.65,14.58c0,0,28.04-24.25,73.32-24.25c0.84,0-34.63,48.79-39.54,71.64
				c0,0.28,79.91-46.69,127.44-64.91c0.14-0.14,41.64,4.07,41.64,4.07s32.25,20.61,68.14,43.88l-9.25-31.82
				c0,0,5.33-0.28,64.49,10.09c0.98,0.14,22.15-18.09,22.15-18.09s47.95-3.65,84.68-28.6C512.46,310.96,453.44,263.43,279.73,223.47
				 M389.23,345.59l6.87-8.69c0,0-13.32,7.57-29.72,5.19c-0.14,0,7.85-6.03,7.57-10.8c0-0.14-16.26,5.89-30.7,3.08
				c-0.14,0,9.81-8.83,9.81-8.83s-12.34,4.91-21.31,3.08l5.05-6.03l-11.78-4.35h44.58l-9.11,7.15c0,0,14.16,5.33,54.96,7.29
				C415.58,332.69,407.17,342.64,389.23,345.59z M446.71,305.91c-4.21,3.5-12.2,10.65-12.2,10.65l4.35-13.32
				c0,0-59.3-0.84-103.19-34.77c-0.28-0.14,23.83,26.22,23.83,26.22l-66.17-5.75l-3.65,24.67l-7.15-33.79c0,0-5.33,14.72-8.27,36.87
				c-0.84,6.45-3.93-23.97-3.93-44.72c0-0.7-8.55,21.59-11.92,43.74c0,0-5.19-24.39-4.49-43.32c0-0.42-10.8,32.53-10.8,41.64
				c0,0.28-4.21-37.71-4.21-37.71s-6.03,15.84-6.31,15.84c-37.29,3.22-66.45,11.78-123.37,27.9c-0.42,0.14-30.14,8.55-30.14,8.55
				s46.55-56.36,114.96-81.88c0,0,14.86-44.72-1.96-105.71c-0.14-0.28,37.01,23.27,64.49,98.14c0,0,115.24,9.11,199.22,66.31
				C456.24,305.63,448.81,304.51,446.71,305.91z"/>
		</g>
	</g>
	<path id="XMLID_3_" class="st1" d="M500.26,123.93v9.53c-10.37-3.65-19.77-5.61-28.18-5.61c-6.31,0-11.22,1.26-15.14,3.65
		c-3.79,2.52-5.75,5.75-5.75,9.81c0,5.75,4.91,10.94,14.58,15.42c9.11,3.93,18.23,7.99,27.2,11.92
		c9.81,5.61,14.72,12.62,14.72,21.03c0,8.83-4.21,15.56-12.48,20.05c-7.29,4.07-17.1,6.03-29.16,6.03c-8.55,0-17.66-0.84-27.48-2.66
		v-9.39c10.37,3.93,20.33,6.03,29.86,6.03c15.98,0,23.97-5.75,23.97-17.24c0-6.31-4.77-11.78-14.3-16.26
		c-8.83-3.93-17.66-7.85-26.5-11.78c-9.53-5.33-14.3-11.92-14.3-20.05c0-7.29,3.36-12.9,10.09-16.96c6.59-3.93,15.7-5.89,27.2-5.89
		C483.02,121.83,491.43,122.53,500.26,123.93"/>
	<path id="XMLID_12_" class="st1" d="M37.75,110.76L53.03,74.3c0.7-1.68,1.12-2.66,1.12-3.5c0-0.84-0.56-1.4-1.54-1.82
		c-0.7-0.42-2.1-0.7-4.21-1.12v-1.12h12.76l19.07,44.16h-7.15l-6.17-14.58H48.27l-5.89,14.58h-4.63 M57.66,73.6l-8.41,20.05h16.82
		L57.66,73.6z"/>
	<path id="XMLID_13_" class="st1" d="M122.29,110.76V73.6c0-1.96-0.42-3.22-1.4-4.07s-3.08-1.4-6.17-1.82v-0.98h37.57v3.93h-19.49
		c-2.1,0-3.08,0.14-3.65,0.7c-0.42,0.42-0.7,1.68-0.7,3.5v28.32c0,1.96,0.42,3.08,1.26,3.5c0.42,0.28,1.68,0.28,4.35,0.28h18.09
		v3.93h-29.86"/>
	<path id="XMLID_14_" class="st1" d="M62.99,123.79v9.53c-10.37-3.65-19.77-5.61-28.32-5.61c-6.31,0-11.36,1.26-15.14,3.65
		c-3.79,2.52-5.75,5.75-5.75,9.81c0,5.75,4.91,10.94,14.72,15.56c9.11,3.93,18.23,7.99,27.2,11.92
		c9.81,5.61,14.72,12.62,14.72,21.03c0,8.83-4.21,15.56-12.62,20.19c-7.43,4.07-17.1,6.17-29.16,6.17c-8.55,0-17.81-0.84-27.48-2.66
		v-9.39c10.37,3.93,20.33,6.03,30,6.03c15.98,0,23.97-5.75,23.97-17.24c0-6.31-4.77-11.78-14.3-16.4
		c-8.83-3.93-17.66-7.85-26.64-11.78c-9.53-5.33-14.3-11.92-14.3-20.05c0-7.29,3.36-12.9,10.09-16.96
		c6.59-3.93,15.7-6.03,27.34-6.03C45.74,121.55,54.16,122.39,62.99,123.79"/>
	<rect id="XMLID_15_" x="128.18" y="86.78" class="st1" width="24.53" height="3.93"/>
	<path id="XMLID_16_" class="st1" d="M86.96,110.76V73.6c0-1.96-0.42-3.22-1.4-4.07c-0.98-0.84-3.08-1.4-6.17-1.82v-0.98h13.88
		v36.45c0,1.96,0.42,3.08,1.26,3.5c0.42,0.28,1.68,0.28,4.35,0.28h18.23v3.93H86.96"/>
	<g id="XMLID_19_">
		<g>
			<defs>
				<rect id="SVGID_00000128485924921210746800000006837982244466993075_" x="0.18" y="66.03" width="511.72" height="379.93"/>
			</defs>
			<clipPath id="SVGID_00000022544445677761023100000002664296512557730747_">
				<use xlink:href="#SVGID_00000128485924921210746800000006837982244466993075_"  style="overflow:visible;"/>
			</clipPath>
			<path id="XMLID_20_" style="clip-path:url(#SVGID_00000022544445677761023100000002664296512557730747_);fill:#0E2E4F;" d="
				M31.58,67.01v4.63c-4.49-1.82-8.55-2.66-12.2-2.66c-2.66,0-4.91,0.56-6.59,1.82c-1.68,1.26-2.52,2.8-2.52,4.77
				c0,2.8,2.1,5.33,6.31,7.43c3.93,1.96,7.85,3.79,11.78,5.75c4.21,2.66,6.31,6.03,6.31,10.09c0,4.21-1.82,7.57-5.47,9.67
				c-3.22,1.96-7.43,2.94-12.62,2.94c-3.65,0-7.71-0.42-11.92-1.26v-4.49c4.49,1.96,8.83,2.94,12.9,2.94
				c6.87,0,10.37-2.8,10.37-8.27c0-3.08-2.1-5.61-6.17-7.85c-3.79-1.82-7.57-3.79-11.5-5.61c-4.07-2.52-6.17-5.75-6.17-9.67
				c0-3.5,1.4-6.31,4.35-8.13c2.8-1.96,6.73-2.94,11.78-2.94C24.01,66.03,27.8,66.31,31.58,67.01"/>
		</g>
	</g>
	<path id="XMLID_17_" class="st1" d="M147.39,216.46v-44.3h-42.34v44.3H88.22v-79.21c0-4.35-0.98-7.29-2.94-8.83
		c-2.1-1.82-6.73-3.08-13.6-3.93v-2.52h33.37v41.36h42.34v-26.08c0-4.35-0.98-7.29-2.94-8.83c-2.1-1.82-6.73-3.08-13.6-3.93v-2.52
		h33.37v94.49L147.39,216.46"/>
	<path id="XMLID_23_" class="st1" d="M248.19,121.83l45.14-0.14c11.36,0,19.77,1.26,25.24,4.35c7.01,3.93,10.65,10.51,10.65,19.91
		c0,13.18-9.25,20.89-27.76,22.99l32.39,47.53h-15.7l-31.96-46.69h-7.85v46.55h-16.82v-79.21c0-4.35-0.98-7.29-2.94-8.83
		c-2.1-1.82-6.73-3.08-13.6-3.93v-2.52L248.19,121.83 M278.33,164.31h4.07c8.97,0,15.56-0.84,19.77-2.52
		c7.43-2.94,11.22-8.69,11.22-17.24c0-11.64-7.99-17.52-23.97-17.52c-4.91,0-7.99,0.42-9.25,1.12c-0.98,0.7-1.68,2.1-1.96,4.35
		L278.33,164.31z"/>
	<path id="XMLID_24_" class="st1" d="M369.46,165.43l39.68-43.46h10.65l-35.33,40.38l43.88,53.42h-20.61l-37.85-47.11l-0.42-0.84
		v48.51h-16.82v-79.21c0-4.35-0.98-7.29-2.94-8.83c-2.1-1.82-6.73-3.08-13.6-3.93v-2.52h33.37L369.46,165.43"/>
</g>
</svg>
