<?xml version="1.0" encoding="utf-8"?>
<!-- Generator: Adobe Illustrator 15.1.0, SVG Export Plug-In  -->
<!DOCTYPE svg PUBLIC "-//W3C//DTD SVG 1.1//EN" "http://www.w3.org/Graphics/SVG/1.1/DTD/svg11.dtd" [
	<!ENTITY ns_flows "http://ns.adobe.com/Flows/1.0/">
]>
<svg version="1.1"
	 xmlns="http://www.w3.org/2000/svg" xmlns:xlink="http://www.w3.org/1999/xlink" xmlns:a="http://ns.adobe.com/AdobeSVGViewerExtensions/3.0/"
	 x="0px" y="0px" width="1000px" height="1000px" viewBox="0 -263.936 1000 1000"
	 overflow="visible" enable-background="new 0 -263.936 1000 1000" xml:space="preserve">
<defs>
</defs>
<path fill="#D12A2F" d="M148.248,453.076c6.372,6.975,13.096,10.099,22.125,10.099c8.317,0,14.691-3.645,14.691-8.329
	c0-2.811-2.126-5.103-6.375-7.081c-1.945-0.832-5.133-1.77-12.034-3.645c-14.69-3.852-21.771-6.661-26.196-10.306
	c-4.248-3.54-6.194-7.185-6.194-11.559c0-12.909,17.7-22.696,41.062-22.696c16.992,0,29.559,4.374,38.586,13.326l-13.453,5.519
	c-5.132-6.662-12.212-9.892-21.416-9.892c-8.317,0-14.691,3.331-14.691,7.915c0,2.603,2.303,5.101,6.374,6.975
	c1.771,0.834,4.6,1.666,12.389,3.645c8.141,2.082,17.523,5.206,22.658,7.602c6.901,3.121,10.974,8.327,10.974,14.054
	c0,13.744-18.232,23.426-43.898,23.426c-17.7,0-29.559-3.955-40.001-13.431L148.248,453.076z"/>
<path fill="#D12A2F" d="M329.993,454.012c-9.558,11.559-27.966,18.116-51.151,18.116c-36.285,0-63.72-15.514-63.72-36.127
	c0-20.407,28.145-36.441,63.897-36.441c21.417,0,38.76,5.623,49.38,16.242l-14.511,6.247c-8.85-9.578-18.585-13.849-31.33-13.849
	c-19.648,0-31.505,10.621-31.505,28.217c0,8.641,3.187,15.305,9.204,19.885c6.195,4.478,14.512,6.977,23.54,6.977
	c8.85,0,18.409-2.812,24.779-7.288c3.01-2.082,4.779-3.645,8.496-7.392L329.993,454.012z"/>
<polygon fill="#D12A2F" points="385.436,441.311 370.035,416.529 355.345,441.311 350.036,449.952 337.292,470.566 320.299,470.566 
	362.778,401.121 396.056,401.121 439.243,470.566 403.664,470.566 390.743,449.952 "/>
<path fill="#D12A2F" d="M439.241,401.121h50.622c30.799,0,49.914,8.019,49.914,20.928c0,9.37-9.383,15.514-27.965,18.324
	l28.494,30.193h-36.992l-28.673-34.879c2.832,0.209,4.071,0.209,5.841,0.209c17.522,0,26.016-4.061,26.016-12.181
	c0-8.956-9.023-13.535-27.256-13.535h-6.901v60.386h-33.101V401.121z"/>
<polygon fill="#D12A2F" points="621.725,401.121 621.725,461.196 579.069,461.196 579.069,401.121 545.971,401.121 545.971,470.566 
	697.657,470.566 697.657,461.196 654.823,461.196 654.823,440.165 694.115,440.165 694.115,430.795 654.823,430.795 
	654.823,410.492 726.68,410.492 726.68,470.566 759.782,470.566 759.782,410.492 792.701,410.492 792.701,401.121 "/>
<path fill="#D12A2F" d="M802.083,453.076c6.369,6.975,13.096,10.099,22.125,10.099c8.317,0,14.69-3.645,14.69-8.329
	c0-2.811-2.123-5.103-6.373-7.081c-1.948-0.832-5.133-1.77-12.035-3.645c-14.689-3.852-21.771-6.661-26.195-10.306
	c-4.25-3.54-6.194-7.185-6.194-11.559c0-12.909,17.7-22.696,41.062-22.696c16.992,0,29.56,4.374,38.588,13.326l-13.454,5.519
	c-5.132-6.662-12.213-9.892-21.417-9.892c-8.317,0-14.69,3.331-14.69,7.915c0,2.603,2.302,5.101,6.373,6.975
	c1.77,0.834,4.601,1.666,12.389,3.645c8.143,2.082,17.525,5.206,22.657,7.602c6.902,3.121,10.974,8.327,10.974,14.054
	c0,13.744-18.233,23.426-43.896,23.426c-17.699,0-29.56-3.955-39.999-13.431L802.083,453.076z"/>
<path fill="#D12A2F" d="M1000,0c-1.646,0.484-78.271,18.038-204.146,54.745c-125.872,36.708-186.834,85.566-186.834,85.566
	c-28.425,22.356,3.592,35.504,3.733,35.468c59.205,19.83-2.773,61.896-40.797,70.03c-38.95,8.329-56.446,2.847-56.446,2.847
	c0.521,13.535,16.13,26.029,16.13,26.029c-1.456,0.028-28.575-11.713-19.478-32.857c6.007-13.958,25.073-0.228,25.073-0.228
	s-1.821-12.425-9.017-24.488c-10.392-17.425,18.672,8.765,18.672,8.765s-8.256-19.73-10.721-28.674
	c-2.578-9.333,15.549,5.098,15.549,5.098s-0.874-11.58-4.828-22.345c-3.55-9.678,14.479,1.382,14.479,1.382
	s-0.74-12.527-6.211-21.579c-7.857-13.004,12.201,1.085,12.201,1.085c-2.452-14.759-11.029-26.529-11.632-32.511
	c-0.15-1.485,0.191-2.612,1.236-3.342c5.263-3.669,10.225,5.387,10.225,5.387s0.757-11.62,4.507-17.125
	c3.754-5.512,15.036-4.288,15.036-4.288c-6.008-6.118,5.722-29.02,5.722-29.02c-0.472,0.529-0.955,0.9-1.447,1.202
	c-5.723,5.637-17.42,16.051-25.965,16.238c0,0,10.555-4.938,12.238-6.74c0,0-1.924-3.289,1.383-16.58l-0.15-0.236
	c-11.272,16.523-30.121,21.059-30.121,21.059c-15.105-9.217-29.934-2.709-29.934-2.709c-31.351,4.833-27.335-1.302-27.335-1.302
	c-11.334,0.511-8.1,9.21-17.937,8.636c-10.653-0.623-16.646-4.97-31.358-6.76c-14.347-1.745-18.26,5.967-18.26,5.967
	c11.072-7.582,20.312,2.049,9.188,1.097c-8.262-0.703-14.514,0.809-10.187,5.119c4.25,4.238-1.447,14.284,2.988,11.057
	c0.916,2.633,3.499,6.623,5.76,7.668c0,0-2.039-4.471,0.165-8.082l0.002-0.004l-0.002,0.004h0.002
	c0.843,2.701,2.813,6.771,5.341,7.942c0,0-0.998-3.769,1.13-7.353c0.871,2.7,2.915,6.697,5.404,7.853c0,0-0.973-3.712,1.101-7.271
	c0.869,2.7,2.971,6.625,5.437,7.769c0,0-0.946-3.596,1.01-7.101c0.885,2.694,3.51,5.123,5.912,6.243c0,0-1.128-3.986,0.825-5.418
	c0.91,2.632,2.446,3.964,4.725,5.019c0,0-0.008-3.261,1.62-3.978c0.781,2.505,2.245,3.563,4.229,4.489c0,0-0.122-2.347,1.333-3.154
	c1.848,0.641,5.627,3.122,11.592,1.674c2.889-0.019,4.011,2.278,3.599,4.779c-6.472-1.201-21.388-2.949-36.261,1.722
	c-12.84,4.034-22.215,2.289-26.464,0.578c3.2-3.047,8.199-3.874,8.199-3.874s-7.005-2.919-16.375-2.659
	c-8.258,0.227-13.795-2.923-13.795-2.923s2.478,8.983,9.254,13.718c7.011,4.9,13.368,8.783,13.368,8.783s-4.626-4.592-2.833-9.768
	l0.054-0.123c5.481,2.32,16.67,4.711,30.936,0.23c12.415-3.896,23.961-1.725,29.627-0.14c-1.312,0.602-2.894,0.883-4.748,0.627
	c-1.56-1.371-2.652-1.772-4.295-1.822c0,0,0.703,2.347-0.564,3.032c-1.42-1.927-2.136-3.194-4.868-3.032c0,0,1.669,2.116-0.169,3.34
	c-1.612-1.795-2.533-3.111-5.331-2.688c0,0,2.018,1.301-0.556,3.61l-0.02,0.004c-1.677-1.814-2.859-2.705-5.325-2.778
	c0,0,1.749,3.428-0.129,4.221c-1.723-1.796-2.709-2.7-5.025-2.77c0,0,1.492,3.022-0.452,4.22c-1.72-1.762-2.924-2.966-5.096-3.026
	c0,0,1.327,3.419-0.833,4.644c-1.725-1.789-3.096-2.993-5.376-3.062c0,0,1.672,3.548,0.056,4.635
	c-2.031-2.035-4.868-3.658-7.986-3.708c0,0,2.275,1.747,1.402,6.149c-6.572,2.434,4.93,3.542,12.876,8.876
	c-4.706,3.613,13.021,12.221,13.021,12.221s-4.432-15.683,1.051-17.662c4.63-1.672,7.174,4.111,7.174,4.111s-1.187-3.624,4.221-5.14
	c5.427-1.518,9.258,6.076,9.258,6.076s1.244-5.454,4.521-8.317c2.518-2.213,13.019,2.289,17.734,4.482
	c16.983-0.602,20.904-11.951,20.904-11.951c0.651,3.417,0.171,13.228-25.175,16.935c-6.706,6.015-1.822,11.439-1.885,11.439
	c4.655,5.339,12.687,4.222,12.533,4.271c-2.396,0.818-11.075,3.103-19.167-3.359c-17.729,3.836-19.141,14.079-17.981,17.779
	c1.157,3.698,7.971,9.527,18.847,7.555c0,0-11.107,7.717-24.867-5.999c-9.545,0.894-23.764,5.312-21.567,13.913
	c2.253,8.829,16.165,13.12,22.608,11.704c-1.137,0.478-17.35,7.057-27.041-9.236c-13.094,4.378-12.63,10.542-11.852,14.147
	c0.788,3.613,6.002,14.535,26.325,12.511c0,0-18.407,9.265-30.504-8.696c-8.945,4.054-11.185,10.528-11.001,16.407
	c0.042,1.312,0.2,2.77,0.713,4.214c-36.46-15.525-70.941-49.199-24.634-64.71c0.143,0.036,32.159-13.112,3.735-35.468
	c0,0-60.958-48.858-186.836-85.566C78.271,18.038-0.22-0.129,0,0c17.92,5.527,104.509,81.235,14.47,111.354c0-0.002-0.41-0.072,0,0
	c24.553,1.379,96.846,0.073,167.873,3.858c71.249,4.648,141.878,14.513,165.271,40.302c0.19,0.113-14.553-11.692-56.695-19.615
	c-42.439-8.517-112.271-13.154-229.064-12.333c45.461,15.611,104.104,45.884,54.711,114.328
	c36.547-7.273,195.769-69.106,219.1-53.251c-3.338-1.378-32.715-0.488-184.695,53.657c40.722,2.452,100.248,13.051,77.482,78.471
	c21.777-21.853,92.074-107.267,125.55-92.478c-0.816-0.307-26.762-7.437-106.39,85.136c31.827-14.037,88.36-33.307,113.626,23.671
	c4.92-19.733,16.228-74.268,43.443-73.131c-0.075,0.021-18.326,1.009-31.945,63.927c3.439-2.664,13.814-5.851,29.306-8.923
	c-0.591-13.464,2.162-19.854,2.98-20.013c-2.579,28.569,10.857,32.124,10.857,32.124c0.837,21.743,20.364,20.889,20.364,20.889
	c3.132,15.664,54.207,18.491,74.924,3.198c18.948-13.992,23.878-39.662,43.331-41.526c19.448-1.86,67.236,9.971,72.764,14.251
	c-13.621-62.918-31.869-63.906-31.947-63.927c27.217-1.137,38.523,53.397,43.445,73.131c25.265-56.978,81.797-37.708,113.622-23.671
	c-79.626-92.573-105.569-85.443-106.387-85.136c33.476-14.789,103.771,70.625,125.551,92.478
	c-22.768-65.42,36.758-76.019,77.481-78.471c-151.979-54.145-181.359-55.036-184.694-53.657
	c23.329-15.855,182.551,45.978,219.098,53.251c-49.391-68.444,9.249-98.717,54.715-114.328
	c-116.795-0.821-186.631,3.817-229.066,12.333c-42.143,7.923-56.882,19.728-56.695,19.615
	c23.396-25.789,94.023-35.654,165.274-40.302c71.023-3.785,143.319-2.479,167.868-3.858c0.411-0.072,0-0.002,0,0
	C895.493,81.235,982.081,5.527,1000,0 M493.185,111.823c0,0-3.533-3.968-2.944-8.232c0,0,8.512-1.778,18.253-0.123
	C518.23,105.128,494.872,110.652,493.185,111.823"/>
</svg>
