<?xml version="1.0" encoding="utf-8"?>
<!-- Generator: Adobe Illustrator 27.5.0, SVG Export Plug-In . SVG Version: 6.00 Build 0)  -->
<svg version="1.1" id="Layer_1" xmlns="http://www.w3.org/2000/svg" xmlns:xlink="http://www.w3.org/1999/xlink" x="0px" y="0px"
	 viewBox="0 0 1368.89 985.44" style="enable-background:new 0 0 1368.89 985.44;" xml:space="preserve">
<style type="text/css">
	.st0{clip-path:url(#SVGID_00000012452998685345047430000003143814059240883103_);}
	.st1{clip-path:url(#SVGID_00000168099007762759328880000008735414844479989182_);}
	.st2{fill:#5D2E8F;}
	.st3{fill:#FFFFFF;}
	.st4{fill:none;}
</style>
<g>
	<g>
		<g id="Layer_2_1_">
			<g id="Layer_1-2">
				<g>
					<defs>
						<rect id="SVGID_1_" x="121.94" y="162.12" width="1124.9" height="661.1"/>
					</defs>
					<clipPath id="SVGID_00000169558144168674860400000012270971290576260008_">
						<use xlink:href="#SVGID_1_"  style="overflow:visible;"/>
					</clipPath>
					<g id="_1" style="clip-path:url(#SVGID_00000169558144168674860400000012270971290576260008_);">
						<g>
							<g>
								<defs>
									
										<rect id="SVGID_00000077284063516151433210000005794521508523698050_" x="121.94" y="162.12" width="1124.9" height="661.1"/>
								</defs>
								<clipPath id="SVGID_00000066505011124098962810000007081942678798424979_">
									<use xlink:href="#SVGID_00000077284063516151433210000005794521508523698050_"  style="overflow:visible;"/>
								</clipPath>
								<g style="clip-path:url(#SVGID_00000066505011124098962810000007081942678798424979_);">
									<path class="st2" d="M901.44,489.42h262.2c44.9,1,82.2-34.6,83.2-79.5c0-0.1,0-0.3,0-0.4v-235.1h-262.3
										c-44.9-1.1-82.2,34.5-83.2,79.4c0,0.1,0,0.3,0,0.4v235.1h0.1V489.42z"/>
									<path class="st3" d="M1111.44,267.92c0-18.6-9.5-30.2-24.7-30.2h-36.8l-13.2,34.6h41.6v153.6h33.1V267.92z"/>
									<path class="st3" d="M121.94,162.12v661.1h582.3c50.2,0.7,98.5-19.4,133.4-55.5c30.9-32.2,48.4-74.9,49-119.5v-486.1
										H121.94z"/>
									<path class="st2" d="M121.94,162.12v661.1h582.3c50.2,0.7,98.5-19.4,133.4-55.5c30.9-32.2,48.4-74.9,49-119.5v-486.1
										H121.94z M877.94,489.42h-747.1v-318.4h747.1V489.42z"/>
									<path class="st2" d="M272.24,271.12c-26.2-0.1-50.8,12.2-66.5,33.2v-80.7c0-4.3-3.5-7.8-7.8-7.8s-7.8,3.5-7.8,7.8v132.5
										c0.8,44.6,37.5,80.2,82.1,79.7c49.1,0,82.2-42.8,82.2-82.9C354.34,302.42,311.64,271.12,272.24,271.12 M272.24,419.32
										c-36.7,0.4-66.7-29.1-67.1-65.8s29.1-66.7,65.8-67.1s66.7,29.1,67.1,65.8c0,0.1,0,0.2,0,0.3v0.4
										c0,36.6-29.5,66.3-66.1,66.4 M528.54,353.52c0.1,4.2-3.1,7.7-7.3,7.9h-86.3c-4.5-0.2-7.9-4-7.7-8.5l0,0
										c0.2-4.2,3.5-7.5,7.7-7.8h77c-4.6-36.2-37.7-61.8-73.9-57.2s-61.8,37.7-57.2,73.9c4.6,36.2,37.7,61.8,73.9,57.2
										c19.9-2.5,37.6-14,48.1-31.2c1.2-1.8,3-3.1,5.2-3.5c2.1-0.4,4.3,0,6,1.2c3.7,2.4,4.7,7.4,2.3,11.1
										c-23.9,38.7-74.6,50.8-113.3,26.9s-50.8-74.6-26.9-113.3s74.6-50.8,113.3-26.9C513.74,298.32,528.54,324.82,528.54,353.52
										L528.54,353.52z M574.54,422.42L574.54,422.42c-1.5,8.7-9.8,14.5-18.5,13c-6.6-1.2-11.8-6.4-13-13v-137.5
										c1.5-8.7,9.8-14.5,18.5-13c6.6,1.2,11.8,6.4,13,13V422.42z M783.54,431.32c-6.8,2.9-14.1,4.4-21.5,4.4
										c-16.1-0.2-31.2-8-40.7-21.1c-5.9-8.8-61.2-96.2-63.5-100.1c0-0.3-6.2-12.7-18-12c-20.5,1.9-19.5,19-19.5,19.7v99.1
										c-0.7,8.7-8.4,15.2-17.1,14.5c-7-0.6-12.9-5.8-14.2-12.7v-103.6c0-0.4,0.7-32.1,30.9-44.6c23.1-9.5,49.6-1,62.8,20.2
										l63.2,99.6c5.6,8.9,17.3,11.9,26.4,6.7c5.9-3,9.8-8.9,10.1-15.6v-101.3c1.3-7.6,7.9-13.2,15.6-13.2
										c7.8-0.1,14.4,5.5,15.6,13.2v101.4C814.14,405.92,802.04,424.02,783.54,431.32L783.54,431.32z"/>
									<path class="st3" d="M233.24,638.12c-11,0-18.9-2.3-23.5-7c-2.3-2.2-3.7-5.2-3.9-8.5c-0.2-6,1.9-11.9,5.9-16.4
										c5.8-5.5,13.7-8.4,21.6-7.8c7.7-0.6,15.4,2.2,20.9,7.5c4.3,5.3,6.5,12.1,6.2,18.9c0,4.4,3.6,7.9,7.9,7.9
										c4.4,0,7.9-3.6,7.9-7.9c0-41.6-41.1-42.1-42.8-42.1l0,0c-41.7,0-42.9,35.3-42.9,39.7c0,11.8,9.1,31.7,43.3,31.7
										c11.5,0,19.8,2.5,24.5,7.4c2.9,2.9,4.5,6.8,4.4,10.8c0.2,5.7-1.9,11.2-5.7,15.3c-4.9,5-12.6,7.6-22.8,7.6l0,0
										c-7.8,0.5-15.5-2.3-21.2-7.7c-4.2-4.7-6.5-10.8-6.3-17.1c0-4.4-3.6-7.9-7.9-7.9c-4.4,0-7.9,3.6-7.9,7.9
										c-0.3,10.4,3.6,20.6,10.8,28.1c8.6,8.4,20.2,13,32.2,12.7c33.2,0,45-20.9,45-38.8c0-20.8-17.6-34.2-45-34.2 M769.74,638.22
										c-11,0-18.9-2.3-23.5-7c-2.3-2.2-3.8-5.2-4-8.5c-0.2-6,1.9-11.9,5.9-16.4c5.6-5.4,13.2-8.2,21-7.8
										c7.7-0.6,15.3,2.2,20.8,7.6c4.4,5.3,6.7,12,6.4,18.9c-0.3,4.3,2.9,8.1,7.2,8.4s8.1-2.9,8.4-7.2c0-0.4,0-0.8,0-1.2
										c0-41.6-41.1-42.1-42.8-42.1h-0.2c-41.7,0-42.9,35.3-42.9,39.7c0,11.8,9.1,31.7,43.3,31.7c11.5,0,19.7,2.5,24.5,7.4
										c2.9,2.8,4.5,6.7,4.4,10.8c0.2,5.7-1.9,11.2-5.7,15.4c-4.8,5-12.6,7.6-22.8,7.6l0,0c-7.8,0.5-15.5-2.3-21.2-7.7
										c-4.2-4.7-6.4-10.8-6.3-17.1c0-4.4-3.6-7.9-7.9-7.9c-4.4,0-7.9,3.6-7.9,7.9c-0.4,10.4,3.5,20.6,10.8,28.1
										c8.6,8.4,20.2,13,32.3,12.7c33.2,0,45-20.9,45-38.8c0-20.8-17.6-34.3-45-34.3 M337.54,582.82c-22.7-1-42,16.6-43,39.4
										c-0.1,1.2-0.1,2.5,0,3.7v74.9c0,4.4,3.6,8,8,8s8-3.6,8-8v-31.9h26.9c23.8-0.8,42.5-20.7,41.7-44.5
										C378.54,601.82,360.24,583.62,337.54,582.82 M337.54,653.32h-26.9v-27.3c-1-14.2,9.6-26.5,23.8-27.5c1-0.1,2-0.1,3,0
										c15.1,0,27.4,12.3,27.4,27.4c0,14.5-11.4,26.5-25.9,27.4h-1.6H337.54z M456.94,582.82c-35.4,0.1-64.1,28.9-64,64.3
										s28.9,64.1,64.3,64s64.1-28.8,64-64.2c0-35.4-28.7-64.1-64.1-64.1C457.04,582.82,457.04,582.82,456.94,582.82
										 M456.94,695.42c-26.8,0-48.5-21.7-48.5-48.5s21.7-48.5,48.5-48.5s48.5,21.7,48.5,48.5l0,0
										C505.44,673.72,483.74,695.42,456.94,695.42 M592.54,666.32c22.3-8.5,33.6-33.5,25.1-55.8c-6.5-17-22.8-28.1-41-27.9
										c-22.9-1-42.3,16.7-43.3,39.6c-0.1,1.2-0.1,2.4,0,3.7v74.5c0,4.5,3.6,8.1,8.1,8.1s8.1-3.6,8.1-8.1v-31.1h25.6l21.3,34.8
										c1.8,4.1,6.7,5.9,10.8,4.1c4.1-1.8,5.9-6.7,4.1-10.8c-0.1-0.3-0.3-0.5-0.4-0.8c-0.1-0.2-0.2-0.4-0.4-0.6L592.54,666.32z
										 M549.64,653.52v-27.5c0-16.6,10.8-27.7,27-27.7c15.2,0.1,27.5,12.5,27.5,27.7c-0.1,14.6-11.5,26.6-26,27.4h-28.3h-0.2
										V653.52z M716.94,593.42c0,4.4-3.6,8-8,8l0,0h-27.9v99.3c0,4.5-3.6,8.1-8.1,8.1s-8.1-3.6-8.1-8.1v-99.3h-27.9
										c-4.4,0.3-8.3-3-8.6-7.4c-0.3-4.4,3-8.3,7.4-8.6c0.4,0,0.8,0,1.2,0h71.8C713.44,585.32,716.94,588.92,716.94,593.42
										L716.94,593.42L716.94,593.42z"/>
								</g>
							</g>
						</g>
					</g>
				</g>
			</g>
		</g>
	</g>
</g>
<rect x="44.44" y="132.72" class="st4" width="1280" height="720"/>
</svg>
