<?xml version="1.0" encoding="utf-8"?>
<!-- Generator: Adobe Illustrator 27.5.0, SVG Export Plug-In . SVG Version: 6.00 Build 0)  -->
<svg version="1.1" id="Layer_1" xmlns="http://www.w3.org/2000/svg" xmlns:xlink="http://www.w3.org/1999/xlink" x="0px" y="0px"
	 viewBox="0 0 1422.22 1056.55" style="enable-background:new 0 0 1422.22 1056.55;" xml:space="preserve">
<style type="text/css">
	.st0{clip-path:url(#SVGID_00000045576855434241420830000013871370690200319617_);}
	.st1{clip-path:url(#SVGID_00000049203245405036824590000006813581874512139650_);}
	.st2{fill:#5D2E8F;}
	.st3{fill:#FFFFFF;}
	.st4{fill:none;}
</style>
<g>
	<g>
		<g id="Layer_2_1_">
			<g id="Layer_1-2">
				<g>
					<defs>
						<rect id="SVGID_1_" x="141.11" y="193.48" width="1139.9" height="669.7"/>
					</defs>
					<clipPath id="SVGID_00000150078294236234049340000007799629907152265881_">
						<use xlink:href="#SVGID_1_"  style="overflow:visible;"/>
					</clipPath>
					<g id="_2" style="clip-path:url(#SVGID_00000150078294236234049340000007799629907152265881_);">
						<g>
							<g>
								<defs>
									
										<rect id="SVGID_00000016034839886922408830000012787467789601252268_" x="141.11" y="193.48" width="1139.9" height="669.7"/>
								</defs>
								<clipPath id="SVGID_00000026862437121953573340000010594681223005444746_">
									<use xlink:href="#SVGID_00000016034839886922408830000012787467789601252268_"  style="overflow:visible;"/>
								</clipPath>
								<g style="clip-path:url(#SVGID_00000026862437121953573340000010594681223005444746_);">
									<path class="st2" d="M931.31,524.88h265.6c45.5,1,83.2-35.1,84.1-80.6c0-0.1,0-0.2,0-0.3v-238.1h-265.7
										c-45.5-1.1-83.3,35-84.3,80.5c0,0.1,0,0.3,0,0.4v238.1H931.31z"/>
									<path class="st3" d="M1056.11,414.48l1.8-1.4l63.3-49.6c5.4-4.5,18.2-16.1,18.2-32.5c0.3-16.7-13-30.5-29.7-30.7
										c-0.7,0-1.3,0-2,0c-20.2,0-32.8,13.2-32.8,34.2c0.6,12.8,9.1,23.9,21.3,27.9l-27.3,19.7c-17.1-11-26.3-28.5-26.3-50.8
										c0-39.7,34.9-61.2,67.7-61.2c33.3-0.6,60.9,25.9,61.5,59.2c0,0.5,0,1,0,1.4c0,31.3-17.9,47.4-42.7,67l-42.1,32.8h83.9v30.3
										h-102.6c-17.5,0-28.1-8.6-28.1-22.9C1040.21,426.98,1045.91,422.48,1056.11,414.48"/>
									<path class="st3" d="M141.11,193.48v669.7h589.8c50.9,0.7,99.8-19.6,135.1-56.2c31.3-32.6,49.1-75.8,49.6-121v-492.5
										H141.11z"/>
									<path class="st2" d="M141.11,193.48v669.7h589.8c50.9,0.7,99.8-19.6,135.1-56.2c31.3-32.6,49.1-75.8,49.6-121v-492.5
										H141.11z M906.81,524.98h-756.7v-322.6h756.9L906.81,524.98z"/>
									<path class="st2" d="M293.31,303.88c-26.5-0.1-51.5,12.4-67.3,33.6v-81.8c-0.2-4.4-3.9-7.7-8.3-7.5l0,0
										c-4,0.2-7.3,3.5-7.5,7.5v133.9c0.7,45.3,37.9,81.5,83.2,80.9c49.8,0,83.2-43.4,83.2-83.9
										C376.51,335.48,333.31,303.78,293.31,303.88 M292.91,453.98c-37.2,0.2-67.5-29.7-67.7-66.9v-0.1
										c-0.2-37.2,29.8-67.5,67-67.7l0,0c37.2-0.2,67.5,29.8,67.7,67v0.4C359.91,423.68,330.01,453.78,292.91,453.98
										 M552.81,387.28c0.2,4.2-3.2,7.8-7.4,8h-87.3c-4.5-0.2-8-4.1-7.8-8.6l0,0c0.2-4.2,3.6-7.6,7.8-7.9h78.2
										c-4.6-36.7-38.1-62.7-74.8-58h-0.1c-36.7,4.6-62.7,38.1-58,74.8v0.1c4.6,36.7,38.1,62.7,74.8,58h0.1
										c20.2-2.6,38.2-14.2,48.8-31.6c1.2-1.8,3.1-3.1,5.2-3.5c2.1-0.5,4.3,0,6.1,1.3c3.7,2.5,4.8,7.5,2.4,11.3
										c-24.2,39.1-75.5,51.3-114.6,27.1l0,0c-39.1-24.2-51.3-75.5-27.1-114.6l0,0c24-39.4,75.4-51.5,114.5-27.4
										c24.5,15.2,39.5,42,39.5,70.8L552.81,387.28z M599.41,457.08L599.41,457.08c-1.3,7.8-8.1,13.5-15.9,13.4
										c-7.9,0.1-14.7-5.6-16-13.4v-139.3c1.2-7.8,8.1-13.5,16-13.4c7.9-0.1,14.6,5.6,15.9,13.4V457.08z M811.11,466.08
										c-6.9,2.9-14.3,4.4-21.7,4.5c-16.3-0.2-31.5-8.1-41.1-21.3c-6-8.9-62-97.5-64.3-101.4c0-0.3-6.3-12.9-18.2-12.2
										c-20.8,1.9-19.8,19.2-19.8,20v100.4c-0.4,8.3-7.4,14.8-15.7,14.6c-7.8,0.4-14.7-5.1-16-12.8v-105c0-0.4,0.8-32.5,31.5-45.2
										c23.4-9.6,50.3-1,63.6,20.5l64.1,100.9c5.7,9,17.5,12,26.8,6.8c6-3.1,9.9-9.1,10.3-15.8v-102.7c1.3-7.7,8-13.4,15.8-13.4
										c7.9-0.1,14.6,5.6,15.8,13.4v102.9c0.3,20.2-11.9,38.5-30.7,46L811.11,466.08z"/>
									<path class="st3" d="M253.81,675.58c-11.1,0-19.2-2.4-23.8-7.1c-2.4-2.2-3.8-5.3-4-8.6c-0.2-6.1,1.9-12,5.9-16.7
										c5.9-5.6,13.8-8.5,21.9-7.9c7.8-0.6,15.5,2.2,21.2,7.6c4.4,5.4,6.6,12.2,6.3,19.2c0,4.4,3.5,7.9,7.9,7.9
										c4.4,0.1,8-3.3,8.2-7.7c0-0.1,0-0.2,0-0.2c0-42.1-41.7-42.6-43.3-42.6h-0.2c-42.3,0-43.5,35.7-43.5,40.2
										c0,11.9,9.2,32.1,43.8,32.1c11.7,0,20,2.5,24.9,7.5c2.9,2.9,4.5,6.9,4.5,11c0.2,5.7-1.9,11.3-5.8,15.5
										c-5,5.1-12.7,7.7-23.1,7.7l0,0c-7.9,0.6-15.7-2.3-21.4-7.8c-4.3-4.7-6.6-10.9-6.4-17.3c-0.2-4.4-4-7.8-8.4-7.6
										c-4.1,0.2-7.4,3.5-7.6,7.6c-0.3,10.6,3.6,20.8,11,28.4c8.7,8.5,20.5,13.2,32.6,12.9c33.7,0,45.6-21.2,45.6-39.3
										c0-21.1-17.9-34.7-45.6-34.7 M797.01,675.68c-11.1,0-19.2-2.4-23.8-7.1c-2.4-2.3-3.8-5.3-4-8.6c-0.2-6.1,2-12.1,6-16.7
										c5.7-5.5,13.5-8.4,21.5-7.9c7.8-0.6,15.5,2.2,21.1,7.7c4.5,5.3,6.8,12.2,6.5,19.1c0,4.4,3.5,7.9,7.9,7.9
										c4.3-0.1,7.8-3.6,7.8-7.9c0-42.1-41.7-42.6-43.3-42.6h-0.2c-42.3,0-43.5,35.7-43.5,40.2c0,11.9,9.2,32.1,43.9,32.1
										c11.6,0,20,2.5,24.8,7.5c2.9,2.9,4.5,6.8,4.5,10.9c0.2,5.8-1.9,11.4-5.8,15.6c-4.9,5.1-12.7,7.7-23.1,7.7l0,0
										c-7.9,0.5-15.7-2.3-21.4-7.8c-4.3-4.8-6.5-10.9-6.3-17.3c-0.2-4.4-4-7.8-8.5-7.6l0,0c-4.1,0.2-7.4,3.5-7.6,7.6
										c-0.4,10.6,3.6,20.8,10.9,28.4c8.7,8.5,20.5,13.2,32.7,12.9c33.6,0,45.5-21.2,45.5-39.3c0-21.1-17.9-34.7-45.5-34.7
										 M359.81,619.78c-23-1-42.5,16.8-43.5,39.9c-0.1,1.3-0.1,2.5,0,3.8v75.9c0.2,4.2,3.7,7.6,7.9,7.7c4.5,0,8.1-3.6,8.1-8.1
										v-32.1h27.3c24.1-0.5,43.2-20.5,42.7-44.6l0,0c-0.5-23.3-19.3-42.1-42.7-42.7 M359.61,690.98h-27.1v-27.8
										c-0.9-14.4,9.9-26.8,24.3-27.7c0.9-0.1,1.7-0.1,2.6,0c15.3-0.5,28,11.5,28.5,26.8c0.4,15.3-11.5,28-26.8,28.5h-1.7
										L359.61,690.98z M480.91,619.58c-35.9-0.2-65.1,28.8-65.3,64.6c0,0.1,0,0.2,0,0.4c0,35.8,29,64.9,64.8,65
										c35.9,0.1,65-28.9,65.1-64.8c0-0.1,0-0.1,0-0.2c0-35.9-29.2-65-65.1-65l0,0 M480.41,733.68c-27.1,0-49.1-22-49.1-49.1
										s22-49.1,49.1-49.1s49.1,22,49.1,49.1l0,0C529.51,711.68,507.51,733.68,480.41,733.68L480.41,733.68 M617.81,704.08
										c22.5-8.9,33.6-34.3,24.7-56.8l0,0c-6.6-16.8-22.8-27.8-40.8-27.8c-23.2-1-42.9,16.9-43.9,40.1c-0.1,1.2-0.1,2.5,0,3.7
										v75.4c-0.1,4.5,3.5,8.2,8,8.3c0.1,0,0.2,0,0.3,0c4.5-0.1,8-3.7,8-8.2v-31.5h26l21.6,35.3c2.1,4.1,7.1,5.6,11.1,3.5l0,0
										c4-2.1,5.6-7.1,3.5-11.1c-0.1-0.2-0.2-0.4-0.4-0.6L617.81,704.08z M574.31,691.18v-27.7c0-16.8,11-28,27.3-28
										c15.4-0.4,28.2,11.8,28.7,27.2c0.4,15.4-11.7,28.2-27.1,28.7c0,0,0,0-0.1,0h-28.8L574.31,691.18L574.31,691.18z
										 M743.81,630.28c0,4.5-3.6,8.1-8.1,8.1l0,0h-28.2v100.5c0,4.5-3.7,8.2-8.2,8.1h-0.1c-4.5,0-8.2-3.7-8.2-8.2l0,0v-100.4
										h-28.2c-4.5,0-8.2-3.6-8.3-8.1l0,0c0-4.5,3.6-8.2,8.1-8.2c0.1,0,0.2,0,0.2,0h72.8c4.5,0,8.1,3.6,8.2,8.1
										C743.81,630.18,743.81,630.18,743.81,630.28L743.81,630.28z"/>
								</g>
							</g>
						</g>
					</g>
				</g>
			</g>
		</g>
	</g>
</g>
<rect x="71.11" y="168.28" class="st4" width="1280" height="720"/>
</svg>
