<?xml version="1.0" encoding="utf-8"?>
<!-- Generator: Adobe Illustrator 25.0.1, SVG Export Plug-In . SVG Version: 6.00 Build 0)  -->
<svg version="1.1" id="katman_1" xmlns="http://www.w3.org/2000/svg" xmlns:xlink="http://www.w3.org/1999/xlink" x="0px" y="0px"
	 viewBox="0 0 3360.3 2500" style="enable-background:new 0 0 3360.3 2500;" xml:space="preserve">
<style type="text/css">
	.st0{fill-rule:evenodd;clip-rule:evenodd;fill:#FFFFFF;}
	.st1{fill-rule:evenodd;clip-rule:evenodd;}
	.st2{fill-rule:evenodd;clip-rule:evenodd;fill:#CC2229;}
</style>
<g>
	<path class="st0" d="M430.2,0h2500v2500h-2500V0z"/>
	<path class="st1" d="M765.2,320.7L466.9,2179.3h606.6l69.2-567.6l537.4,567.6l537.4-567.6l69.2,567.6h606.6L2595.1,320.7
		l-914.9,953.1L765.2,320.7L765.2,320.7z"/>
	<path class="st2" d="M1693.8,717.9c83.2-143.3,171.3-285.7,236.3-376.2h-385.5c-187.7,263.1-363,578.4-412.8,792.2
		c-13.1,48-19.7,97.5-19.6,147.2c0,311.1,254.4,563.4,568.1,563.4c313.8,0,568.1-252.2,568.1-563.4
		C2248.4,974.5,2001.3,725.1,1693.8,717.9L1693.8,717.9z M1680.2,1533.4c-139.7,0-252.9-113-252.9-252.3
		c0-139.3,113.2-252.3,252.9-252.3c139.7,0,252.9,113,252.9,252.3C1933.1,1420.5,1819.9,1533.4,1680.2,1533.4z"/>
</g>
</svg>
